<?xml version="1.0" standalone="no"?>
<!DOCTYPE svg PUBLIC "-//W3C//DTD SVG 1.1//EN" "http://www.w3.org/Graphics/SVG/1.1/DTD/svg11.dtd" >
<svg xmlns="http://www.w3.org/2000/svg">
<metadata>Generated by IcoMoon</metadata>
<defs>
<font id="matterial-icons" horiz-adv-x="1024">
<font-face units-per-em="1024" ascent="960" descent="-64" />
<missing-glyph horiz-adv-x="1024" />
<glyph unicode="&#x20;" d="" horiz-adv-x="512" />
<glyph unicode="&#xe600;" d="M704 426.667c58.88 0 106.24 47.787 106.24 106.667s-47.36 106.667-106.24 106.667c-58.88 0-106.667-47.787-106.667-106.667s47.787-106.667 106.667-106.667zM384 469.334c70.613 0 127.573 57.387 127.573 128s-56.96 128-127.573 128c-70.613 0-128-57.387-128-128s57.387-128 128-128zM704 341.334c-78.293 0-234.667-39.253-234.667-117.333v-96h469.333v96c0 78.080-156.373 117.333-234.667 117.333zM384 384c-99.627 0-298.667-49.92-298.667-149.333v-106.667h298.667v96c0 36.267 14.293 99.627 101.12 148.053-37.12 7.893-73.173 11.947-101.12 11.947z" />
<glyph unicode="&#xe601;" d="M512 853.334c-235.733 0-426.667-190.933-426.667-426.667s190.933-426.667 426.667-426.667 426.667 190.933 426.667 426.667-190.933 426.667-426.667 426.667zM512 725.334c70.613 0 128-57.387 128-128 0-70.827-57.387-128-128-128s-128 57.173-128 128c0 70.613 57.387 128 128 128zM512 119.467c-106.88 0-200.747 54.613-256 137.387 1.067 84.693 170.88 131.413 256 131.413s254.72-46.72 256-131.413c-55.253-82.773-149.12-137.387-256-137.387z" />
<glyph unicode="&#xe602;" d="M469.333 554.667h85.333v128h128v85.333h-128v128h-85.333v-128h-128v-85.333h128v-128zM298.667 170.667c-47.147 0-84.907-38.187-84.907-85.333s37.76-85.333 84.907-85.333 85.333 38.187 85.333 85.333-38.187 85.333-85.333 85.333zM725.333 170.667c-47.147 0-84.907-38.187-84.907-85.333s37.76-85.333 84.907-85.333 85.333 38.187 85.333 85.333-38.187 85.333-85.333 85.333zM306.133 309.334c0 1.92 0.427 3.627 1.28 5.12l38.4 69.547h317.867c32 0 59.947 17.707 74.667 43.947l164.693 299.093-74.667 40.96h-0.213l-47.147-85.333-117.547-213.333h-299.307l-5.547 11.52-136.32 287.147-40.32 85.333h-139.307v-85.333h85.333l153.6-323.627-57.813-104.533c-6.613-12.373-10.453-26.24-10.453-41.173 0-47.147 38.187-85.333 85.333-85.333h512v85.333h-493.867c-5.973 0-10.667 4.693-10.667 10.667z" />
<glyph unicode="&#xe603;" d="M853.333 853.334h-682.667c-47.147 0-84.907-38.187-84.907-85.333l-0.427-768 170.667 170.667h597.333c47.147 0 85.333 38.187 85.333 85.333v512c0 47.147-38.187 85.333-85.333 85.333zM554.667 469.334h-85.333v256h85.333v-256zM554.667 298.667h-85.333v85.333h85.333v-85.333z" />
<glyph unicode="&#xe604;" d="M128 384h341.333v426.667h-341.333v-426.667zM128 42.667h341.333v256h-341.333v-256zM554.667 42.667h341.333v426.667h-341.333v-426.667zM554.667 810.667v-256h341.333v256h-341.333z" />
<glyph unicode="&#xe605;" d="M256 128c0-47.147 38.187-85.333 85.333-85.333h341.333c47.147 0 85.333 38.187 85.333 85.333v512h-512v-512zM810.667 768h-149.333l-42.667 42.667h-213.333l-42.667-42.667h-149.333v-85.333h597.333v85.333z" />
<glyph unicode="&#xe606;" d="M597.333 853.334h-341.333c-47.147 0-84.907-38.187-84.907-85.333l-0.427-682.667c0-47.147 37.76-85.333 84.907-85.333h512.427c47.147 0 85.333 38.187 85.333 85.333v512l-256 256zM682.667 170.667h-341.333v85.333h341.333v-85.333zM682.667 341.334h-341.333v85.333h341.333v-85.333zM554.667 554.667v234.667l234.667-234.667h-234.667z" />
<glyph unicode="&#xe607;" d="M384 248.747l-177.92 177.92-60.373-60.373 238.293-238.293 512 512-60.373 60.373z" />
<glyph unicode="&#xe608;" d="M768 640l-60.373 60.373-270.507-270.72 60.373-60.373 270.507 270.72zM949.12 700.374l-451.84-451.627-177.92 177.92-60.373-60.373 238.293-238.293 512 512-60.16 60.373zM17.707 366.294l238.293-238.293 60.373 60.373-238.293 238.293-60.373-60.373z" />
<glyph unicode="&#xe609;" d="M512 27.734l-61.867 56.107c-219.733 199.467-364.8 331.093-364.8 492.16 0 131.627 103.040 234.667 234.667 234.667 74.24 0 145.493-34.56 192-88.96 46.507 54.4 117.76 88.96 192 88.96 131.627 0 234.667-103.040 234.667-234.667 0-161.067-145.067-292.693-364.8-492.16l-61.867-56.107z" />
<glyph unicode="&#xe60a;" d="M704 810.667c-74.24 0-145.493-34.56-192-88.96-46.507 54.4-117.76 88.96-192 88.96-131.627 0-234.667-103.040-234.667-234.667 0-161.067 145.067-292.693 364.8-492.16l61.867-56.107 61.867 56.107c219.733 199.467 364.8 331.093 364.8 492.16 0 131.627-103.040 234.667-234.667 234.667zM516.48 146.987l-4.48-4.053-4.48 4.053c-202.88 184.107-336.853 305.707-336.853 429.013 0 85.12 64.213 149.333 149.333 149.333 65.707 0 129.707-42.453 152.107-100.693h79.573c22.613 58.24 86.613 100.693 152.32 100.693 85.12 0 149.333-64.213 149.333-149.333 0-123.307-133.973-244.907-336.853-429.013z" />
<glyph unicode="&#xe60b;" d="M512 201.814l263.68-159.147-69.76 299.947 232.747 201.6-306.773 26.453-119.893 282.667-119.893-282.667-306.773-26.453 232.747-201.6-69.76-299.947z" />
<glyph unicode="&#xe60c;" d="M554.453 810.667c-212.267 0-383.787-171.947-383.787-384h-128l166.187-166.187 2.987-6.187 172.16 172.373h-128c0 164.907 133.76 298.667 298.667 298.667s298.667-133.76 298.667-298.667-133.76-298.667-298.667-298.667c-82.56 0-157.013 33.707-210.987 87.68l-60.373-60.373c69.333-69.547 165.12-112.64 271.147-112.64 212.267 0 384.213 171.947 384.213 384s-171.947 384-384.213 384zM512 597.334v-213.333l182.613-108.373 30.72 51.84-149.333 88.533v181.333h-64z" />
<glyph unicode="&#xe60d;" d="M426.667 85.334v256h170.667v-256h213.333v341.333h128l-426.667 384-426.667-384h128v-341.333z" />
<glyph unicode="&#xe60e;" d="M512 853.334c-235.733 0-426.667-190.933-426.667-426.667s190.933-426.667 426.667-426.667 426.667 190.933 426.667 426.667-190.933 426.667-426.667 426.667zM554.667 213.334h-85.333v256h85.333v-256zM554.667 554.667h-85.333v85.333h85.333v-85.333z" />
<glyph unicode="&#xe60f;" d="M752.427 689.28c-15.573 21.76-40.96 36.053-69.76 36.053l-469.333-0.427c-47.147 0-85.333-37.76-85.333-84.907v-426.667c0-47.147 38.187-84.907 85.333-84.907l469.333-0.427c28.8 0 54.187 14.293 69.76 36.053l186.24 262.613-186.24 262.613z" />
<glyph unicode="&#xe610;" d="M752.427 689.28c-15.573 21.76-40.96 36.053-69.76 36.053l-469.333-0.427c-47.147 0-85.333-37.76-85.333-84.907v-426.667c0-47.147 38.187-84.907 85.333-84.907l469.333-0.427c28.8 0 54.187 14.293 69.76 36.053l186.24 262.613-186.24 262.613zM682.667 213.334h-469.333v426.667h469.333l151.253-213.333-151.253-213.333z" />
<glyph unicode="&#xe611;" d="M768 597.334h-42.667v85.333c0 117.76-95.573 213.333-213.333 213.333s-213.333-95.573-213.333-213.333v-85.333h-42.667c-47.147 0-85.333-38.187-85.333-85.333v-426.667c0-47.147 38.187-85.333 85.333-85.333h512c47.147 0 85.333 38.187 85.333 85.333v426.667c0 47.147-38.187 85.333-85.333 85.333zM512 213.334c-47.147 0-85.333 38.187-85.333 85.333s38.187 85.333 85.333 85.333 85.333-38.187 85.333-85.333-38.187-85.333-85.333-85.333zM644.267 597.334h-264.533v85.333c0 72.96 59.307 132.267 132.267 132.267s132.267-59.307 132.267-132.267v-85.333z" />
<glyph unicode="&#xe612;" d="M512 213.334c47.147 0 85.333 38.187 85.333 85.333s-38.187 85.333-85.333 85.333-85.333-38.187-85.333-85.333 38.187-85.333 85.333-85.333zM768 597.334h-42.667v85.333c0 117.76-95.573 213.333-213.333 213.333s-213.333-95.573-213.333-213.333h81.067c0 72.96 59.307 132.267 132.267 132.267s132.267-59.307 132.267-132.267v-85.333h-388.267c-47.147 0-85.333-38.187-85.333-85.333v-426.667c0-47.147 38.187-85.333 85.333-85.333h512c47.147 0 85.333 38.187 85.333 85.333v426.667c0 47.147-38.187 85.333-85.333 85.333zM768 85.334h-512v426.667h512v-426.667z" />
<glyph unicode="&#xe613;" d="M768 597.334h-42.667v85.333c0 117.76-95.573 213.333-213.333 213.333s-213.333-95.573-213.333-213.333v-85.333h-42.667c-47.147 0-85.333-38.187-85.333-85.333v-426.667c0-47.147 38.187-85.333 85.333-85.333h512c47.147 0 85.333 38.187 85.333 85.333v426.667c0 47.147-38.187 85.333-85.333 85.333zM512 814.934c72.96 0 132.267-59.307 132.267-132.267v-85.333h-260.267v85.333h-4.267c0 72.96 59.307 132.267 132.267 132.267zM768 85.334h-512v426.667h512v-426.667zM512 213.334c47.147 0 85.333 38.187 85.333 85.333s-38.187 85.333-85.333 85.333-85.333-38.187-85.333-85.333 38.187-85.333 85.333-85.333z" />
<glyph unicode="&#xe614;" d="M768 213.334h-512v85.333h512v-85.333zM768 384h-512v85.333h512v-85.333zM768 554.667h-512v85.333h512v-85.333zM128-0l64 64 64-64 64 64 64-64 64 64 64-64 64 64 64-64 64 64 64-64 64 64 64-64v853.333l-64-64-64 64-64-64-64 64-64-64-64 64-64-64-64 64-64-64-64 64-64-64-64 64v-853.333z" />
<glyph unicode="&#xe615;" d="M128 298.667h768v85.333h-768v-85.333zM128 128h768v85.333h-768v-85.333zM128 469.334h768v85.333h-768v-85.333zM128 725.334v-85.333h768v85.333h-768z" />
<glyph unicode="&#xe616;" d="M682.667 682.667v85.333c0 47.147-38.187 85.333-85.333 85.333h-170.667c-47.147 0-85.333-38.187-85.333-85.333v-85.333h-256v-554.667c0-47.147 38.187-85.333 85.333-85.333h682.667c47.147 0 85.333 38.187 85.333 85.333v554.667h-256zM426.667 768h170.667v-85.333h-170.667v85.333zM384 170.667v384l320-170.667-320-213.333z" />
<glyph unicode="&#xe617;" d="M734.293 554.667l-186.88 279.68c-8.107 12.373-21.76 18.133-35.413 18.133s-27.307-5.973-35.413-18.133l-186.88-279.68h-204.373c-23.467 0-42.667-19.2-42.667-42.667 0-4.053 0.64-7.893 1.493-11.52l108.16-395.52c10.027-35.84 43.093-62.293 82.347-62.293h554.667c39.253 0 72.32 26.453 82.133 62.507l108.16 395.52c1.067 3.413 1.707 7.253 1.707 11.307 0 23.467-19.2 42.667-42.667 42.667h-204.373zM384 554.667l128 187.733 128-187.733h-256zM512 213.334c-47.147 0-85.333 38.187-85.333 85.333s38.187 85.333 85.333 85.333 85.333-38.187 85.333-85.333-38.187-85.333-85.333-85.333z" />
<glyph unicode="&#xe618;" d="M298.667 170.667c-47.147 0-84.907-38.187-84.907-85.333s37.76-85.333 84.907-85.333 85.333 38.187 85.333 85.333-38.187 85.333-85.333 85.333zM42.667 853.334v-85.333h85.333l153.387-323.627-57.6-104.533c-6.613-12.373-10.453-26.24-10.453-41.173 0-47.147 38.187-85.333 85.333-85.333h512v85.333h-493.867c-5.973 0-10.667 4.693-10.667 10.667 0 1.92 0.427 3.627 1.28 5.12l38.187 69.547h317.867c32 0 59.947 17.707 74.667 43.947l152.533 276.907c3.413 5.973 5.333 13.013 5.333 20.48 0 23.68-19.2 42.667-42.667 42.667h-630.827l-40.533 85.333h-139.307zM725.333 170.667c-47.147 0-84.907-38.187-84.907-85.333s37.76-85.333 84.907-85.333 85.333 38.187 85.333 85.333-38.187 85.333-85.333 85.333z" />
<glyph unicode="&#xe619;" d="M725.333 810.667h-426.667c-47.147 0-84.907-38.187-84.907-85.333l-0.427-682.667 298.667 128 298.667-128v682.667c0 47.147-38.187 85.333-85.333 85.333z" />
<glyph unicode="&#xe61a;" d="M725.333 810.667h-426.667c-47.147 0-84.907-38.187-84.907-85.333l-0.427-682.667 298.667 128 298.667-128v682.667c0 47.147-38.187 85.333-85.333 85.333zM725.333 170.667l-213.333 92.8-213.333-92.8v554.667h426.667v-554.667z" />
<glyph unicode="&#xe61b;" d="M512 896l-384-170.667v-256c0-237.013 163.627-458.027 384-512 220.373 53.973 384 274.987 384 512v256l-384 170.667zM426.667 213.334l-170.667 170.667 60.373 60.373 110.293-110.293 280.96 280.96 60.373-60.373-341.333-341.333z" />
<glyph unicode="&#xe61c;" d="M170.667 170.667h128v554.667h-128v-554.667zM768 725.334v-554.667h128v554.667h-128zM341.333 170.667h384v554.667h-384v-554.667z" />
<glyph unicode="&#xe61d;" d="M298.667 128h426.667v640h-426.667v-640zM85.333 213.334h170.667v469.333h-170.667v-469.333zM768 682.667v-469.333h170.667v469.333h-170.667z" />
<glyph unicode="&#xe61e;" d="M426.667 170.667h213.333v554.667h-213.333v-554.667zM170.667 170.667h213.333v554.667h-213.333v-554.667zM682.667 725.334v-554.667h213.333v554.667h-213.333z" />
<glyph unicode="&#xe61f;" d="M85.333 42.667h810.667v128h-810.667v-128zM853.333 597.334h-725.333c-23.467 0-42.667-19.2-42.667-42.667v-256c0-23.467 19.2-42.667 42.667-42.667h725.333c23.467 0 42.667 19.2 42.667 42.667v256c0 23.467-19.2 42.667-42.667 42.667zM85.333 810.667v-128h810.667v128h-810.667z" />
<glyph unicode="&#xe620;" d="M170.667 341.334h170.667v170.667h-170.667v-170.667zM170.667 128h170.667v170.667h-170.667v-170.667zM170.667 554.667h170.667v170.667h-170.667v-170.667zM384 341.334h512v170.667h-512v-170.667zM384 128h512v170.667h-512v-170.667zM384 725.334v-170.667h512v170.667h-512z" />
<glyph unicode="&#xe621;" d="M170.667 469.334h213.333v256h-213.333v-256zM170.667 170.667h213.333v256h-213.333v-256zM426.667 170.667h213.333v256h-213.333v-256zM682.667 170.667h213.333v256h-213.333v-256zM426.667 469.334h213.333v256h-213.333v-256zM682.667 725.334v-256h213.333v256h-213.333z" />
<glyph unicode="&#xe622;" d="M426.667 170.667h213.333v256h-213.333v-256zM170.667 170.667h213.333v554.667h-213.333v-554.667zM682.667 170.667h213.333v256h-213.333v-256zM426.667 725.334v-256h469.333v256h-469.333z" />
<glyph unicode="&#xe623;" d="M170.667 170.667h725.333v256h-725.333v-256zM170.667 725.334v-256h725.333v256h-725.333z" />
<glyph unicode="&#xe624;" d="M256 725.334h-128c-23.467 0-42.667-19.2-42.667-42.667v-512c0-23.467 19.2-42.667 42.667-42.667h128c23.467 0 42.667 19.2 42.667 42.667v512c0 23.467-19.2 42.667-42.667 42.667zM853.333 725.334h-128c-23.467 0-42.667-19.2-42.667-42.667v-512c0-23.467 19.2-42.667 42.667-42.667h128c23.467 0 42.667 19.2 42.667 42.667v512c0 23.467-19.2 42.667-42.667 42.667zM554.667 725.334h-128c-23.467 0-42.667-19.2-42.667-42.667v-512c0-23.467 19.2-42.667 42.667-42.667h128c23.467 0 42.667 19.2 42.667 42.667v512c0 23.467-19.2 42.667-42.667 42.667z" />
<glyph unicode="&#xe625;" d="M853.333 682.667h-93.227c4.693 13.44 7.893 27.733 7.893 42.667 0 70.613-57.387 128-128 128-44.587 0-83.84-22.827-106.667-57.387l-21.333-29.013-21.333 29.013c-22.827 34.56-62.080 57.387-106.667 57.387-70.613 0-128-57.387-128-128 0-14.933 2.987-29.227 7.893-42.667h-93.227c-47.147 0-84.907-38.187-84.907-85.333l-0.427-469.333c0-47.147 38.187-85.333 85.333-85.333h682.667c47.147 0 85.333 38.187 85.333 85.333v469.333c0 47.147-38.187 85.333-85.333 85.333zM640 768c23.467 0 42.667-19.2 42.667-42.667s-19.2-42.667-42.667-42.667-42.667 19.2-42.667 42.667 19.2 42.667 42.667 42.667zM384 768c23.467 0 42.667-19.2 42.667-42.667s-19.2-42.667-42.667-42.667-42.667 19.2-42.667 42.667 19.2 42.667 42.667 42.667zM853.333 128h-682.667v85.333h682.667v-85.333zM853.333 341.334h-682.667v256h216.747l-88.747-120.96 69.333-49.707 144 196.053 42.667-58.027 101.333-138.027 69.333 49.707-88.747 120.96h216.747v-256z" />
<glyph unicode="&#xe626;" d="M853.333 853.334h-682.667c-47.147 0-85.333-38.187-85.333-85.333v-469.333c0-47.147 38.187-85.333 85.333-85.333h170.667v-213.333l170.667 85.333 170.667-85.333v213.333h170.667c47.147 0 85.333 38.187 85.333 85.333v469.333c0 47.147-38.187 85.333-85.333 85.333zM853.333 298.667h-682.667v85.333h682.667v-85.333zM853.333 512h-682.667v256h682.667v-256z" />
<glyph unicode="&#xe627;" d="M853.333 682.667h-128v85.333c0 47.147-38.187 85.333-85.333 85.333h-256c-47.147 0-85.333-38.187-85.333-85.333v-85.333h-128c-47.147 0-85.333-38.187-85.333-85.333v-469.333c0-47.147 38.187-85.333 85.333-85.333h682.667c47.147 0 85.333 38.187 85.333 85.333v469.333c0 47.147-38.187 85.333-85.333 85.333zM384 768h256v-85.333h-256v85.333zM853.333 128h-682.667v85.333h682.667v-85.333zM853.333 341.334h-682.667v256h128v-85.333h85.333v85.333h256v-85.333h85.333v85.333h128v-256z" />
<glyph unicode="&#xe628;" d="M853.333 682.667h-170.667v85.333c0 47.147-38.187 85.333-85.333 85.333h-170.667c-47.147 0-85.333-38.187-85.333-85.333v-85.333h-170.667c-47.147 0-84.907-38.187-84.907-85.333l-0.427-469.333c0-47.147 38.187-85.333 85.333-85.333h682.667c47.147 0 85.333 38.187 85.333 85.333v469.333c0 47.147-38.187 85.333-85.333 85.333zM597.333 682.667h-170.667v85.333h170.667v-85.333z" />
<glyph unicode="&#xe629;" d="M512 853.334c-235.52 0-426.667-190.933-426.667-426.667s191.147-426.667 426.667-426.667 426.667 190.933 426.667 426.667-191.147 426.667-426.667 426.667zM554.667 213.334h-85.333v85.333h85.333v-85.333zM554.667 384h-85.333v256h85.333v-256z" />
<glyph unicode="&#xe62a;" d="M42.667 42.667h938.667l-469.333 810.667-469.333-810.667zM554.667 170.667h-85.333v85.333h85.333v-85.333zM554.667 341.334h-85.333v170.667h85.333v-170.667z" />
<glyph unicode="&#xe62b;" d="M426.667 85.334h170.667v682.667h-170.667v-682.667zM170.667 85.334h170.667v341.333h-170.667v-341.333zM682.667 554.667v-469.333h170.667v469.333h-170.667z" />
<glyph unicode="&#xe62c;" d="M170.667 170.667l362.667 256-362.667 256v-512zM554.667 682.667v-512l362.667 256-362.667 256z" />
<glyph unicode="&#xe62d;" d="M469.333 170.667v512l-362.667-256 362.667-256zM490.667 426.667l362.667-256v512l-362.667-256z" />
<glyph unicode="&#xe62e;" d="M512 341.334c70.613 0 127.573 57.387 127.573 128l0.427 256c0 70.827-57.173 128-128 128-70.613 0-128-57.173-128-128v-256c0-70.613 57.387-128 128-128zM460.8 729.6c0 28.16 23.040 51.2 51.2 51.2s51.2-23.040 51.2-51.2l-0.427-264.533c0-28.16-22.827-51.2-50.773-51.2-28.16 0-51.2 23.040-51.2 51.2v264.533zM738.133 469.334c0-128-108.16-217.6-226.133-217.6-117.76 0-226.133 89.6-226.133 217.6h-72.533c0-145.707 116.053-266.027 256-286.72v-139.947h85.333v139.947c139.947 20.693 256 141.013 256 286.72h-72.533z" />
<glyph unicode="&#xe62f;" d="M810.667 469.334h-72.533c0-31.787-6.613-61.227-18.56-87.467l52.48-52.48c24.32 41.6 38.613 89.173 38.613 139.947zM639.36 462.294c0 2.347 0.64 4.693 0.64 7.040v256c0 70.827-57.387 128-128 128s-128-57.173-128-128v-7.893l255.36-255.147zM182.4 810.667l-54.4-54.4 256.427-256.427v-30.72c0-70.613 56.96-128 127.573-128 9.6 0 18.773 1.28 27.733 3.2l70.827-70.827c-30.507-14.080-64-21.973-98.56-21.973-117.76 0-226.133 89.6-226.133 217.6h-72.533c0-145.707 116.053-266.027 256-286.72v-139.733h85.333v139.947c38.613 5.76 75.307 19.2 108.373 38.613l178.56-178.56 54.4 54.187-713.6 713.813z" />
<glyph unicode="&#xe630;" d="M256 128h170.667v597.333h-170.667v-597.333zM597.333 725.334v-597.333h170.667v597.333h-170.667z" />
<glyph unicode="&#xe631;" d="M341.333 725.334v-597.333l469.333 298.667z" />
<glyph unicode="&#xe632;" d="M725.333 490.667v149.333c0 23.467-19.2 42.667-42.667 42.667h-512c-23.467 0-42.667-19.2-42.667-42.667v-426.667c0-23.467 19.2-42.667 42.667-42.667h512c23.467 0 42.667 19.2 42.667 42.667v149.333l170.667-170.667v469.333l-170.667-170.667z" />
<glyph unicode="&#xe633;" d="M896 661.334l-170.667-170.667v149.333c0 23.467-19.2 42.667-42.667 42.667h-263.68l477.013-477.013v455.68zM139.733 853.334l-54.4-54.4 116.267-116.267h-30.933c-23.467 0-42.667-19.2-42.667-42.667v-426.667c0-23.467 19.2-42.667 42.667-42.667h512c8.747 0 16.427 3.2 23.253 7.893l135.893-135.893 54.187 54.4-756.267 756.267z" />
<glyph unicode="&#xe634;" d="M789.333 426.667c0 75.52-43.52 140.373-106.667 171.947v-343.467c63.147 31.147 106.667 96 106.667 171.52zM213.333 554.667v-256h170.667l213.333-213.333v682.667l-213.333-213.333h-170.667z" />
<glyph unicode="&#xe635;" d="M298.667 554.667v-256h170.667l213.333-213.333v682.667l-213.333-213.333h-170.667z" />
<glyph unicode="&#xe636;" d="M704 426.667c0 75.307-43.52 140.373-106.667 171.733v-94.293l104.747-104.747c1.28 8.96 1.92 18.133 1.92 27.307zM810.667 426.667c0-40.107-8.747-77.867-23.040-112.64l64.64-64.64c27.733 53.12 43.733 113.28 43.733 177.28 0 182.613-127.787 335.36-298.667 374.187v-88.107c123.307-36.693 213.333-150.827 213.333-286.080zM182.4 810.667l-54.4-54.4 201.6-201.6h-201.6v-256h170.667l213.333-213.333v286.933l181.547-181.547c-28.587-21.973-60.8-39.68-96.213-50.347v-88.107c58.667 13.44 112.213 40.32 157.227 77.227l87.040-86.827 54.4 54.4-713.6 713.6zM512 768l-89.173-89.173 89.173-89.173v178.347z" />
<glyph unicode="&#xe637;" d="M128 554.667v-256h170.667l213.333-213.333v682.667l-213.333-213.333h-170.667zM704 426.667c0 75.52-43.52 140.373-106.667 171.947v-343.467c63.147 31.147 106.667 96 106.667 171.52zM597.333 800.854v-87.893c123.307-36.693 213.333-151.040 213.333-286.293s-90.027-249.6-213.333-286.293v-87.893c171.093 38.827 298.667 191.573 298.667 374.187s-127.573 335.36-298.667 374.187z" />
<glyph unicode="&#xe638;" d="M853.333 853.334h-682.667c-47.147 0-84.907-38.187-84.907-85.333l-0.427-768 170.667 170.667h597.333c47.147 0 85.333 38.187 85.333 85.333v512c0 47.147-38.187 85.333-85.333 85.333zM256 554.667h512v-85.333h-512v85.333zM597.333 341.334h-341.333v85.333h341.333v-85.333zM768 597.334h-512v85.333h512v-85.333z" />
<glyph unicode="&#xe639;" d="M896 682.667h-85.333v-384h-554.667v-85.333c0-23.467 19.2-42.667 42.667-42.667h469.333l170.667-170.667v640c0 23.467-19.2 42.667-42.667 42.667zM725.333 426.667v384c0 23.467-19.2 42.667-42.667 42.667h-554.667c-23.467 0-42.667-19.2-42.667-42.667v-597.333l170.667 170.667h426.667c23.467 0 42.667 19.2 42.667 42.667z" />
<glyph unicode="&#xe63a;" d="M853.333 853.334h-682.667c-47.147 0-85.333-38.187-85.333-85.333v-768l170.667 170.667h597.333c47.147 0 85.333 38.187 85.333 85.333v512c0 47.147-38.187 85.333-85.333 85.333z" />
<glyph unicode="&#xe63b;" d="M853.333 853.334h-682.667c-47.147 0-84.907-38.187-84.907-85.333l-0.427-768 170.667 170.667h597.333c47.147 0 85.333 38.187 85.333 85.333v512c0 47.147-38.187 85.333-85.333 85.333zM384 469.334h-85.333v85.333h85.333v-85.333zM554.667 469.334h-85.333v85.333h85.333v-85.333zM725.333 469.334h-85.333v85.333h85.333v-85.333z" />
<glyph unicode="&#xe63c;" d="M539.733 512c-35.2 99.413-129.707 170.667-241.067 170.667-141.44 0-256-114.56-256-256s114.56-256 256-256c111.36 0 205.867 71.253 241.067 170.667h185.6v-170.667h170.667v170.667h85.333v170.667h-441.6zM298.667 341.334c-47.147 0-85.333 38.187-85.333 85.333s38.187 85.333 85.333 85.333 85.333-38.187 85.333-85.333-38.187-85.333-85.333-85.333z" />
<glyph unicode="&#xe63d;" d="M512 853.334c-235.733 0-426.667-190.933-426.667-426.667s190.933-426.667 426.667-426.667 426.667 190.933 426.667 426.667-190.933 426.667-426.667 426.667zM725.333 384h-170.667v-170.667h-85.333v170.667h-170.667v85.333h170.667v170.667h85.333v-170.667h170.667v-85.333z" />
<glyph unicode="&#xe63e;" d="M554.667 640h-85.333v-170.667h-170.667v-85.333h170.667v-170.667h85.333v170.667h170.667v85.333h-170.667v170.667zM512 853.334c-235.733 0-426.667-190.933-426.667-426.667s190.933-426.667 426.667-426.667 426.667 190.933 426.667 426.667-190.933 426.667-426.667 426.667zM512 85.334c-188.16 0-341.333 153.173-341.333 341.333s153.173 341.333 341.333 341.333 341.333-153.173 341.333-341.333-153.173-341.333-341.333-341.333z" />
<glyph unicode="&#xe63f;" d="M411.307 612.694c9.6 21.333 15.36 45.013 15.36 69.973 0 94.293-76.373 170.667-170.667 170.667s-170.667-76.373-170.667-170.667 76.373-170.667 170.667-170.667c24.96 0 48.64 5.76 69.973 15.36l100.693-100.693-100.693-100.693c-21.333 9.6-45.013 15.36-69.973 15.36-94.293 0-170.667-76.373-170.667-170.667s76.373-170.667 170.667-170.667 170.667 76.373 170.667 170.667c0 24.96-5.76 48.64-15.36 69.973l100.693 100.693 298.667-298.667h128v42.667l-527.36 527.36zM256 597.334c-47.147 0-85.333 38.187-85.333 85.333s38.187 85.333 85.333 85.333 85.333-38.187 85.333-85.333-38.187-85.333-85.333-85.333zM256 85.334c-47.147 0-85.333 38.187-85.333 85.333s38.187 85.333 85.333 85.333 85.333-38.187 85.333-85.333-38.187-85.333-85.333-85.333zM512 405.334c-11.733 0-21.333 9.6-21.333 21.333s9.6 21.333 21.333 21.333 21.333-9.6 21.333-21.333-9.6-21.333-21.333-21.333zM810.667 810.667l-256-256 85.333-85.333 298.667 298.667v42.667z" />
<glyph unicode="&#xe640;" d="M810.667 853.334h-178.56c-17.493 49.493-64.427 85.333-120.107 85.333s-102.613-35.84-120.107-85.333h-178.56c-47.147 0-85.333-38.187-85.333-85.333v-682.667c0-47.147 38.187-85.333 85.333-85.333h597.333c47.147 0 85.333 38.187 85.333 85.333v682.667c0 47.147-38.187 85.333-85.333 85.333zM512 853.334c23.467 0 42.667-18.987 42.667-42.667s-19.2-42.667-42.667-42.667-42.667 18.987-42.667 42.667 19.2 42.667 42.667 42.667zM810.667 85.334h-597.333v682.667h85.333v-128h426.667v128h85.333v-682.667z" />
<glyph unicode="&#xe641;" d="M938.24 597.334c0 30.72-16 57.387-40.107 72.533l-386.133 226.133-386.133-226.133c-24.107-15.147-40.533-41.813-40.533-72.533v-426.667c0-47.147 38.187-85.333 85.333-85.333h682.667c47.147 0 85.333 38.187 85.333 85.333l-0.427 426.667zM512 384l-352.427 220.373 352.427 206.293 352.427-206.293-352.427-220.373z" />
<glyph unicode="&#xe642;" d="M512 853.334c-235.733 0-426.667-190.933-426.667-426.667s190.933-426.667 426.667-426.667 426.667 190.933 426.667 426.667-190.933 426.667-426.667 426.667zM725.333 384h-426.667v85.333h426.667v-85.333z" />
<glyph unicode="&#xe643;" d="M298.667 469.334v-85.333h426.667v85.333h-426.667zM512 853.334c-235.733 0-426.667-190.933-426.667-426.667s190.933-426.667 426.667-426.667 426.667 190.933 426.667 426.667-190.933 426.667-426.667 426.667zM512 85.334c-188.16 0-341.333 153.173-341.333 341.333s153.173 341.333 341.333 341.333 341.333-153.173 341.333-341.333-153.173-341.333-341.333-341.333z" />
<glyph unicode="&#xe644;" d="M298.667 597.334v128l-298.667-298.667 298.667-298.667v128l-170.667 170.667 170.667 170.667zM554.667 554.667v170.667l-298.667-298.667 298.667-298.667v174.933c213.333 0 362.667-68.267 469.333-217.6-42.667 213.333-170.667 426.667-469.333 469.333z" />
<glyph unicode="&#xe645;" d="M85.76 42.667l895.573 384-895.573 384-0.427-298.667 640-85.333-640-85.333z" />
<glyph unicode="&#xe646;" d="M511.787 853.334c-235.733 0-426.453-190.933-426.453-426.667s190.72-426.667 426.453-426.667c235.733 0 426.88 190.933 426.88 426.667s-191.147 426.667-426.88 426.667zM512 85.334c-188.587 0-341.333 152.747-341.333 341.333s152.747 341.333 341.333 341.333 341.333-152.747 341.333-341.333-152.747-341.333-341.333-341.333zM533.333 640h-64v-256l223.787-134.4 32.213 52.48-192 113.92z" />
<glyph unicode="&#xe647;" d="M768 853.334h-341.333l-255.147-256-0.853-512c0-46.933 38.4-85.333 85.333-85.333h512c46.933 0 85.333 38.4 85.333 85.333v682.667c0 46.933-38.4 85.333-85.333 85.333zM512 597.334h-85.333v170.667h85.333v-170.667zM640 597.334h-85.333v170.667h85.333v-170.667zM768 597.334h-85.333v170.667h85.333v-170.667z" />
<glyph unicode="&#xe648;" d="M85.333 85.334h853.333v170.667h-853.333v-170.667zM170.667 213.334h85.333v-85.333h-85.333v85.333zM85.333 768v-170.667h853.333v170.667h-853.333zM256 640h-85.333v85.333h85.333v-85.333zM85.333 341.334h853.333v170.667h-853.333v-170.667zM170.667 469.334h85.333v-85.333h-85.333v85.333z" />
<glyph unicode="&#xe649;" d="M704 682.667v-490.667c0-94.293-76.373-170.667-170.667-170.667s-170.667 76.373-170.667 170.667v533.333c0 58.88 47.787 106.667 106.667 106.667s106.667-47.787 106.667-106.667v-448c0-23.467-18.987-42.667-42.667-42.667s-42.667 19.2-42.667 42.667v405.333h-64v-405.333c0-58.88 47.787-106.667 106.667-106.667s106.667 47.787 106.667 106.667v448c0 94.293-76.373 170.667-170.667 170.667s-170.667-76.373-170.667-170.667v-533.333c0-129.707 105.173-234.667 234.667-234.667s234.667 104.96 234.667 234.667v490.667h-64z" />
<glyph unicode="&#xe64a;" d="M503.467 473.6c-96.853 25.173-128 50.987-128 91.52 0 46.507 42.88 79.147 115.2 79.147 75.947 0 104.107-36.267 106.667-89.6h94.293c-2.773 73.6-47.787 140.587-136.96 162.56v93.44h-128v-92.16c-82.773-18.133-149.333-71.467-149.333-154.027 0-98.56 81.707-147.627 200.533-176.213 106.88-25.6 128-62.933 128-103.040 0-29.227-20.693-76.16-115.2-76.16-87.893 0-122.667 39.467-127.147 89.6h-94.080c5.333-93.44 75.093-145.707 157.227-163.413v-92.587h128v91.733c82.987 16 149.333 64 149.333 151.68 0 120.747-103.68 162.133-200.533 187.52z" />
<glyph unicode="&#xe64b;" d="M170.667 490.667c-35.413 0-64-28.587-64-64s28.587-64 64-64 64 28.587 64 64-28.587 64-64 64zM170.667 746.667c-35.413 0-64-28.587-64-64s28.587-64 64-64 64 28.587 64 64-28.587 64-64 64zM170.667 227.627c-31.36 0-56.96-25.387-56.96-56.96s25.6-56.96 56.96-56.96 56.96 25.387 56.96 56.96-25.6 56.96-56.96 56.96zM298.667 128h597.333v85.333h-597.333v-85.333zM298.667 384h597.333v85.333h-597.333v-85.333zM298.667 725.334v-85.333h597.333v85.333h-597.333z" />
<glyph unicode="&#xe64c;" d="M85.333 213.334h85.333v-21.333h-42.667v-42.667h42.667v-21.333h-85.333v-42.667h128v170.667h-128v-42.667zM128 597.334h42.667v170.667h-85.333v-42.667h42.667v-128zM85.333 469.334h76.8l-76.8-89.6v-38.4h128v42.667h-76.8l76.8 89.6v38.4h-128v-42.667zM298.667 725.334v-85.333h597.333v85.333h-597.333zM298.667 128h597.333v85.333h-597.333v-85.333zM298.667 384h597.333v85.333h-597.333v-85.333z" />
<glyph unicode="&#xe64d;" d="M256 213.334h128l85.333 170.667v256h-256v-256h128zM597.333 213.334h128l85.333 170.667v256h-256v-256h128z" />
<glyph unicode="&#xe64e;" d="M384 768v-128h213.333v-512h128v512h213.333v128h-554.667zM128 426.667h128v-298.667h128v298.667h128v128h-384v-128z" />
<glyph unicode="&#xe64f;" d="M853.333 853.334h-682.667c-47.147 0-85.333-38.187-85.333-85.333v-512c0-47.147 38.187-85.333 85.333-85.333h597.333l170.667-170.667v768c0 47.147-38.187 85.333-85.333 85.333zM768 341.334h-512v85.333h512v-85.333zM768 469.334h-512v85.333h512v-85.333zM768 597.334h-512v85.333h512v-85.333z" />
<glyph unicode="&#xe650;" d="M256 853.334c-47.147 0-84.907-38.187-84.907-85.333l-0.427-682.667c0-47.147 37.76-85.333 84.907-85.333h512.427c47.147 0 85.333 38.187 85.333 85.333v512l-256 256h-341.333zM554.667 554.667v234.667l234.667-234.667h-234.667z" />
<glyph unicode="&#xe651;" d="M938.24 768c0 47.147-37.76 85.333-84.907 85.333h-682.667c-47.147 0-85.333-38.187-85.333-85.333v-512c0-47.147 38.187-85.333 85.333-85.333h597.333l170.667-170.667-0.427 768z" />
<glyph unicode="&#xe652;" d="M682.667 384h-128v426.667h-85.333v-426.667h-128l170.667-170.667 170.667 170.667zM170.667 128v-85.333h682.667v85.333h-682.667z" />
<glyph unicode="&#xe653;" d="M341.333 469.334h128v-426.667h85.333v426.667h128l-170.667 170.667-170.667-170.667zM170.667 810.667v-85.333h682.667v85.333h-682.667z" />
<glyph unicode="&#xe654;" d="M426.667 768h-256c-47.147 0-84.907-38.187-84.907-85.333l-0.427-512c0-47.147 38.187-85.333 85.333-85.333h682.667c47.147 0 85.333 38.187 85.333 85.333v426.667c0 47.147-38.187 85.333-85.333 85.333h-341.333l-85.333 85.333z" />
<glyph unicode="&#xe655;" d="M853.333 682.667h-341.333l-85.333 85.333h-256c-47.147 0-84.907-38.187-84.907-85.333l-0.427-512c0-47.147 38.187-85.333 85.333-85.333h682.667c47.147 0 85.333 38.187 85.333 85.333v426.667c0 47.147-38.187 85.333-85.333 85.333zM853.333 170.667h-682.667v426.667h682.667v-426.667z" />
<glyph unicode="&#xe656;" d="M853.333 170.667c47.147 0 84.907 38.187 84.907 85.333l0.427 426.667c0 47.147-38.187 85.333-85.333 85.333h-682.667c-47.147 0-85.333-38.187-85.333-85.333v-426.667c0-47.147 38.187-85.333 85.333-85.333h-170.667v-85.333h1024v85.333h-170.667zM170.667 682.667h682.667v-426.667h-682.667v426.667z" />
<glyph unicode="&#xe657;" d="M896 853.334h-768c-47.147 0-85.333-38.187-85.333-85.333v-512c0-47.147 38.187-85.333 85.333-85.333h298.667l-85.333-128v-42.667h341.333v42.667l-85.333 128h298.667c47.147 0 85.333 38.187 85.333 85.333v512c0 47.147-38.187 85.333-85.333 85.333zM896 341.334h-768v426.667h768v-426.667z" />
<glyph unicode="&#xe658;" d="M896 853.334h-768c-47.147 0-85.333-38.187-85.333-85.333v-512c0-47.147 38.187-85.333 85.333-85.333h298.667v-85.333h-85.333v-85.333h341.333v85.333h-85.333v85.333h298.667c47.147 0 85.333 38.187 85.333 85.333v512c0 47.147-38.187 85.333-85.333 85.333zM896 256h-768v512h768v-512z" />
<glyph unicode="&#xe659;" d="M512 298.667c70.613 0 127.573 57.387 127.573 128l0.427 256c0 70.827-57.173 128-128 128-70.613 0-128-57.173-128-128v-256c0-70.613 57.387-128 128-128zM738.133 426.667c0-128-108.16-217.6-226.133-217.6-117.76 0-226.133 89.6-226.133 217.6h-72.533c0-145.707 116.053-266.027 256-286.72v-139.947h85.333v139.947c139.947 20.693 256 141.013 256 286.72h-72.533z" />
<glyph unicode="&#xe65a;" d="M853.333 170.667c46.933 0 85.333 38.4 85.333 85.333v426.667c0 46.933-38.4 85.333-85.333 85.333h-682.667c-46.933 0-85.333-38.4-85.333-85.333v-426.667c0-46.933 38.4-85.333 85.333-85.333h-170.667v-85.333h1024v85.333h-170.667zM170.667 682.667h682.667v-426.667h-682.667v426.667z" />
<glyph unicode="&#xe65b;" d="M938.667 170.667v640h-853.333v-640h-85.333v-85.333h1024v85.333h-85.333zM597.333 170.667h-170.667v42.667h170.667v-42.667zM853.333 298.667h-682.667v426.667h682.667v-426.667z" />
<glyph unicode="&#xe65c;" d="M853.333 170.667c47.147 0 84.907 38.187 84.907 85.333l0.427 469.333c0 47.147-38.187 85.333-85.333 85.333h-682.667c-47.147 0-85.333-38.187-85.333-85.333v-469.333c0-47.147 38.187-85.333 85.333-85.333h-170.667c0-47.147 38.187-85.333 85.333-85.333h853.333c47.147 0 85.333 38.187 85.333 85.333h-170.667zM170.667 725.334h682.667v-469.333h-682.667v469.333zM512 128c-23.467 0-42.667 19.2-42.667 42.667s19.2 42.667 42.667 42.667 42.667-19.2 42.667-42.667-19.2-42.667-42.667-42.667z" />
<glyph unicode="&#xe65d;" d="M853.333 170.667v42.667c47.147 0 84.907 38.187 84.907 85.333l0.427 426.667c0 47.147-38.187 85.333-85.333 85.333h-682.667c-47.147 0-85.333-38.187-85.333-85.333v-426.667c0-47.147 38.187-85.333 85.333-85.333v-42.667h-170.667v-85.333h1024v85.333h-170.667zM170.667 725.334h682.667v-426.667h-682.667v426.667z" />
<glyph unicode="&#xe65e;" d="M554.667 893.014v-338.347h298.667c0 174.080-130.347 317.44-298.667 338.347zM170.667 298.667c0-188.587 152.747-341.333 341.333-341.333s341.333 152.747 341.333 341.333v170.667h-682.667v-170.667zM469.333 893.014c-168.32-20.907-298.667-164.267-298.667-338.347h298.667v338.347z" />
<glyph unicode="&#xe65f;" d="M682.667 896h-341.333c-70.613 0-128-57.387-128-128v-682.667c0-70.613 57.387-128 128-128h341.333c70.613 0 128 57.387 128 128v682.667c0 70.613-57.387 128-128 128zM597.333 42.667h-170.667v42.667h170.667v-42.667zM736 170.667h-448v597.333h448v-597.333z" />
<glyph unicode="&#xe660;" d="M661.333 896h-341.333c-58.88 0-106.667-47.787-106.667-106.667v-725.333c0-58.88 47.787-106.667 106.667-106.667h341.333c58.88 0 106.667 47.787 106.667 106.667v725.333c0 58.88-47.787 106.667-106.667 106.667zM490.667-0c-35.413 0-64 28.587-64 64s28.587 64 64 64 64-28.587 64-64-28.587-64-64-64zM682.667 170.667h-384v597.333h384v-597.333z" />
<glyph unicode="&#xe661;" d="M170.667 682.667h768v85.333h-768c-47.147 0-85.333-38.187-85.333-85.333v-469.333h-85.333v-128h597.333v128h-426.667v469.333zM981.333 597.334h-256c-23.467 0-42.667-19.2-42.667-42.667v-426.667c0-23.467 19.2-42.667 42.667-42.667h256c23.467 0 42.667 19.2 42.667 42.667v426.667c0 23.467-19.2 42.667-42.667 42.667zM938.667 213.334h-170.667v298.667h170.667v-298.667z" />
<glyph unicode="&#xe662;" d="M512 896l-384-170.667v-256c0-237.013 163.627-458.027 384-512 220.373 53.973 384 274.987 384 512v256l-384 170.667zM512 427.094h298.667c-22.613-175.787-139.733-332.373-298.667-381.227v380.8h-298.667v243.2l298.667 132.693v-375.467z" />
<glyph unicode="&#xe663;" d="M725.333 895.574l-426.667 0.427c-47.147 0-85.333-38.187-85.333-85.333v-768c0-47.147 38.187-85.333 85.333-85.333h426.667c47.147 0 85.333 38.187 85.333 85.333v768c0 47.147-38.187 84.907-85.333 84.907zM725.333 128h-426.667v597.333h426.667v-597.333z" />
<glyph unicode="&#xe664;" d="M725.333 853.334h-426.667c-47.147 0-85.333-38.187-85.333-85.333v-682.667c0-47.147 38.187-84.907 85.333-84.907l426.667-0.427c47.147 0 85.333 38.187 85.333 85.333v682.667c0 47.147-38.187 85.333-85.333 85.333zM512 768c47.147 0 85.333-38.187 85.333-85.333s-38.187-85.333-85.333-85.333-85.333 38.187-85.333 85.333 38.187 85.333 85.333 85.333zM512 85.334c-117.76 0-213.333 95.573-213.333 213.333s95.573 213.333 213.333 213.333 213.333-95.573 213.333-213.333-95.573-213.333-213.333-213.333zM512 426.667c-70.613 0-128-57.387-128-128s57.387-128 128-128 128 57.387 128 128-57.387 128-128 128z" />
<glyph unicode="&#xe665;" d="M896 768h-768c-47.147 0-85.333-38.187-85.333-85.333v-512c0-47.147 38.187-85.333 85.333-85.333h768c47.147 0 84.907 38.187 84.907 85.333l0.427 512c0 47.147-38.187 85.333-85.333 85.333zM810.667 170.667h-597.333v512h597.333v-512z" />
<glyph unicode="&#xe666;" d="M768 938.667h-512c-70.613 0-128-57.387-128-128v-768c0-70.613 57.387-128 128-128h512c70.613 0 128 57.387 128 128v768c0 70.613-57.387 128-128 128zM597.333-0h-170.667v42.667h170.667v-42.667zM821.333 128h-618.667v682.667h618.667v-682.667z" />
<glyph unicode="&#xe667;" d="M789.333 938.667h-597.333c-58.88 0-106.667-47.787-106.667-106.667v-810.667c0-58.88 47.787-106.667 106.667-106.667h597.333c58.88 0 106.667 47.787 106.667 106.667v810.667c0 58.88-47.787 106.667-106.667 106.667zM490.667-42.666c-35.413 0-64 28.587-64 64s28.587 64 64 64 64-28.587 64-64-28.587-64-64-64zM810.667 128h-640v682.667h640v-682.667z" />
<glyph unicode="&#xe668;" d="M896 810.667h-768c-47.147 0-85.333-38.187-85.333-85.333v-512c0-47.147 38.187-85.333 85.333-85.333h213.333v-85.333h341.333v85.333h213.333c47.147 0 84.907 38.187 84.907 85.333l0.427 512c0 47.147-38.187 85.333-85.333 85.333zM896 213.334h-768v512h768v-512z" />
<glyph unicode="&#xe669;" d="M853.333 426.667c0 108.587-50.773 205.227-129.92 267.733l-40.747 244.267h-341.333l-40.747-244.267c-79.147-62.507-129.92-159.147-129.92-267.733s50.773-205.227 129.92-267.733l40.747-244.267h341.333l40.747 244.267c79.147 62.507 129.92 159.147 129.92 267.733zM256 426.667c0 141.44 114.56 256 256 256s256-114.56 256-256-114.56-256-256-256-256 114.56-256 256z" />
<glyph unicode="&#xe66a;" d="M512 810.667v-395.733c-20.053 7.040-41.387 11.733-64 11.733-106.027 0-192-85.973-192-192s85.973-192 192-192c98.773 0 179.2 74.88 189.867 170.667h2.133v469.333h170.667v128h-298.667z" />
<glyph unicode="&#xe66b;" d="M298.667 341.334c-70.613 0-128-57.387-128-128 0-55.893-49.28-85.333-85.333-85.333 39.253-52.053 106.453-85.333 170.667-85.333 94.293 0 170.667 76.373 170.667 170.667 0 70.613-57.387 128-128 128zM883.413 741.12l-56.96 56.96c-16.64 16.64-43.733 16.64-60.373 0l-382.080-382.080 117.333-117.333 382.080 382.080c16.853 16.853 16.853 43.733 0 60.373z" />
<glyph unicode="&#xe66c;" d="M512 810.667c-212.053 0-384-171.947-384-384s171.947-384 384-384c35.413 0 64 28.587 64 64 0 16.64-6.187 31.573-16.64 42.88-10.027 11.307-16 26.027-16 42.453 0 35.413 28.587 64 64 64h75.307c117.76 0 213.333 95.573 213.333 213.333 0 188.587-171.947 341.333-384 341.333zM277.333 426.667c-35.413 0-64 28.587-64 64s28.587 64 64 64 64-28.587 64-64-28.587-64-64-64zM405.333 597.334c-35.413 0-64 28.587-64 64s28.587 64 64 64 64-28.587 64-64-28.587-64-64-64zM618.667 597.334c-35.413 0-64 28.587-64 64s28.587 64 64 64 64-28.587 64-64-28.587-64-64-64zM746.667 426.667c-35.413 0-64 28.587-64 64s28.587 64 64 64 64-28.587 64-64-28.587-64-64-64z" />
<glyph unicode="&#xe66d;" d="M883.413 698.454l-99.627 99.627c-16.64 16.64-43.733 16.64-60.373 0l-133.333-133.333-81.707 81.92-60.373-60.373 60.587-60.587-380.587-380.373v-202.667h202.667l380.587 380.587 60.373-60.587 60.373 60.373-81.92 81.92 133.333 133.333c16.853 16.64 16.853 43.52 0 60.16zM295.253 128l-81.92 81.92 344.107 344.107 81.92-81.92-344.107-344.107z" />
<glyph unicode="&#xe66e;" d="M85.333 277.334v-85.333h853.333v85.333h-853.333zM85.333 490.667v-85.333h853.333v85.333h-853.333zM85.333 704v-85.333h853.333v85.333h-853.333z" />
<glyph unicode="&#xe66f;" d="M128 202.667v-160h160l472.107 472.107-160 160-472.107-472.107zM883.413 638.080c16.64 16.64 16.64 43.733 0 60.373l-99.627 99.627c-16.64 16.64-43.733 16.64-60.373 0l-78.080-78.080 160-160 78.080 78.080z" />
<glyph unicode="&#xe670;" d="M825.813 510.507c-29.013 146.773-158.507 257.493-313.813 257.493-123.307 0-229.973-69.973-283.52-172.16-128.427-13.653-228.48-122.453-228.48-254.507 0-141.44 114.56-256 256-256h554.667c117.76 0 213.333 95.573 213.333 213.333 0 112.64-87.467 203.947-198.187 211.84zM810.667 170.667h-554.667c-94.080 0-170.667 76.587-170.667 170.667s76.587 170.667 170.667 170.667 170.667-76.587 170.667-170.667h85.333c0 117.76-79.573 216.533-187.733 246.4 42.88 57.387 110.933 94.933 187.733 94.933 129.493 0 234.667-105.173 234.667-234.667v-21.333h64c70.613 0 128-57.387 128-128s-57.387-128-128-128z" />
<glyph unicode="&#xe671;" d="M298.667 853.334v-469.333h128v-384l298.667 512h-170.667l170.667 341.333z" />
<glyph unicode="&#xe672;" d="M597.333 682.667l-160-213.333 121.6-162.133-68.267-51.2c-72.107 96-192 256-192 256l-256-341.333h938.667l-384 512z" />
<glyph unicode="&#xe673;" d="M512 746.667c-213.333 0-395.52-132.693-469.333-320 73.813-187.307 256-320 469.333-320s395.52 132.693 469.333 320c-73.813 187.307-255.787 320-469.333 320zM512 213.334c-117.76 0-213.333 95.573-213.333 213.333s95.573 213.333 213.333 213.333 213.333-95.573 213.333-213.333-95.573-213.333-213.333-213.333zM512 554.667c-70.613 0-128-57.387-128-128s57.387-128 128-128 128 57.387 128 128-57.387 128-128 128z" />
<glyph unicode="&#xe674;" d="M128 213.334v-85.333h256v85.333h-256zM128 725.334v-85.333h426.667v85.333h-426.667zM554.667 42.667v85.333h341.333v85.333h-341.333v85.333h-85.333v-256h85.333zM298.667 554.667v-85.333h-170.667v-85.333h170.667v-85.333h85.333v256h-85.333zM896 384v85.333h-426.667v-85.333h426.667zM640 554.667h85.333v85.333h170.667v85.333h-170.667v85.333h-85.333v-256z" />
<glyph unicode="&#xe675;" d="M298.667 170.667c-47.147 0-84.907-38.187-84.907-85.333s37.76-85.333 84.907-85.333 85.333 38.187 85.333 85.333-38.187 85.333-85.333 85.333zM42.667 853.334v-85.333h85.333l153.387-323.627-57.6-104.533c-6.613-12.373-10.453-26.24-10.453-41.173 0-47.147 38.187-85.333 85.333-85.333h512v85.333h-493.867c-5.973 0-10.667 4.693-10.667 10.667 0 1.92 0.427 3.627 1.28 5.12l38.187 69.547h317.867c32 0 59.947 17.707 74.667 43.947l152.533 276.907c3.413 5.973 5.333 13.013 5.333 20.48 0 23.68-19.2 42.667-42.667 42.667h-630.827l-40.533 85.333h-139.307zM725.333 170.667c-47.147 0-84.907-38.187-84.907-85.333s37.76-85.333 84.907-85.333 85.333 38.187 85.333 85.333-38.187 85.333-85.333 85.333z" />
<glyph unicode="&#xe676;" d="M298.667 384c70.613 0 128 57.387 128 128s-57.387 128-128 128-128-57.387-128-128 57.387-128 128-128zM810.667 640h-341.333v-298.667h-341.333v384h-85.333v-640h85.333v128h768v-128h85.333v384c0 94.293-76.373 170.667-170.667 170.667z" />
<glyph unicode="&#xe677;" d="M512 446.080c-100.907 93.653-235.52 151.253-384 151.253v-469.333c148.48 0 283.093-57.6 384-151.253 100.907 93.653 235.52 151.253 384 151.253v469.333c-148.48 0-283.093-57.6-384-151.253zM512 597.334c70.613 0 128 57.387 128 128s-57.387 128-128 128-128-57.387-128-128 57.387-128 128-128z" />
<glyph unicode="&#xe678;" d="M810.667 682.667h-85.333c0 117.76-95.573 213.333-213.333 213.333s-213.333-95.573-213.333-213.333h-85.333c-47.147 0-84.907-38.187-84.907-85.333l-0.427-512c0-47.147 38.187-85.333 85.333-85.333h597.333c47.147 0 85.333 38.187 85.333 85.333v512c0 47.147-38.187 85.333-85.333 85.333zM512 810.667c70.613 0 128-57.387 128-128h-256c0 70.613 57.387 128 128 128zM512 384c-117.76 0-213.333 95.573-213.333 213.333h85.333c0-70.613 57.387-128 128-128s128 57.387 128 128h85.333c0-117.76-95.573-213.333-213.333-213.333z" />
<glyph unicode="&#xe679;" d="M913.493 444.587l-383.787 383.787c-15.573 15.36-36.907 24.96-60.373 24.96h-298.667c-47.147 0-85.333-38.187-85.333-85.333v-298.667c0-23.68 9.6-45.013 25.173-60.373l384-384c15.36-15.36 36.693-24.96 60.16-24.96s45.013 9.6 60.373 24.96l298.667 298.667c15.36 15.573 24.96 36.907 24.96 60.373 0 23.68-9.6 45.013-25.173 60.587zM234.667 640c-35.413 0-64 28.587-64 64s28.587 64 64 64 64-28.587 64-64-28.587-64-64-64z" />
<glyph unicode="&#xe67a;" d="M554.667 810.667h-298.667v-768h170.667v256h128c141.44 0 256 114.56 256 256s-114.56 256-256 256zM563.2 469.334h-136.533v170.667h136.533c47.147 0 85.333-38.187 85.333-85.333s-38.187-85.333-85.333-85.333z" />
<glyph unicode="&#xe67b;" d="M282.667 478.080c61.44-120.747 160.213-219.52 281.173-280.96l93.867 94.080c11.733 11.733 28.587 15.147 43.307 10.453 47.787-15.787 99.2-24.32 152.32-24.32 23.68 0 42.667-18.987 42.667-42.667v-149.333c0-23.68-18.987-42.667-42.667-42.667-400.64 0-725.333 324.693-725.333 725.333 0 23.68 19.2 42.667 42.667 42.667h149.333c23.68 0 42.667-18.987 42.667-42.667 0-53.12 8.533-104.533 24.32-152.32 4.693-14.72 1.28-31.573-10.453-43.307l-93.867-94.293z" />
<glyph unicode="&#xe67c;" d="M512 853.334c-152.107 0-289.067-65.92-383.573-170.667l383.573-682.667 383.787 682.453c-94.507 104.96-231.467 170.88-383.787 170.88zM298.667 640c0 47.147 38.187 85.333 85.333 85.333s85.333-38.187 85.333-85.333-38.187-85.333-85.333-85.333-85.333 38.187-85.333 85.333zM512 298.667c-47.147 0-85.333 38.187-85.333 85.333s38.187 85.333 85.333 85.333 85.333-38.187 85.333-85.333-38.187-85.333-85.333-85.333z" />
<glyph unicode="&#xe67d;" d="M853.333 768h-682.667c-47.147 0-84.907-38.187-84.907-85.333l-0.427-512c0-47.147 38.187-85.333 85.333-85.333h682.667c47.147 0 85.333 38.187 85.333 85.333v512c0 47.147-38.187 85.333-85.333 85.333zM853.333 597.334l-341.333-213.333-341.333 213.333v85.333l341.333-213.333 341.333 213.333v-85.333z" />
<glyph unicode="&#xe67e;" d="M810.667 597.334h-597.333c-70.613 0-128-57.387-128-128v-256h170.667v-170.667h512v170.667h170.667v256c0 70.613-57.387 128-128 128zM682.667 128h-341.333v213.333h341.333v-213.333zM810.667 426.667c-23.68 0-42.667 18.987-42.667 42.667s18.987 42.667 42.667 42.667c23.68 0 42.667-18.987 42.667-42.667s-18.987-42.667-42.667-42.667zM768 810.667h-512v-170.667h512v170.667z" />
<glyph unicode="&#xe67f;" d="M648.533 426.667c0-75.405-61.128-136.533-136.533-136.533s-136.533 61.128-136.533 136.533c0 75.405 61.128 136.533 136.533 136.533s136.533-61.128 136.533-136.533zM384 853.334l-78.080-85.333h-135.253c-47.147 0-85.333-38.187-85.333-85.333v-512c0-47.147 38.187-85.333 85.333-85.333h682.667c47.147 0 85.333 38.187 85.333 85.333v512c0 47.147-38.187 85.333-85.333 85.333h-135.253l-78.080 85.333h-256zM512 213.334c-117.76 0-213.333 95.573-213.333 213.333s95.573 213.333 213.333 213.333 213.333-95.573 213.333-213.333-95.573-213.333-213.333-213.333z" />
<glyph unicode="&#xe680;" d="M853.333 597.334h-128v170.667h-597.333c-47.147 0-85.333-38.187-85.333-85.333v-469.333h85.333c0-70.613 57.387-128 128-128s128 57.387 128 128h256c0-70.613 57.387-128 128-128s128 57.387 128 128h85.333v213.333l-128 170.667zM256 149.334c-35.413 0-64 28.587-64 64s28.587 64 64 64 64-28.587 64-64-28.587-64-64-64zM832 533.334l83.84-106.667h-190.507v106.667h106.667zM768 149.334c-35.413 0-64 28.587-64 64s28.587 64 64 64 64-28.587 64-64-28.587-64-64-64z" />
<glyph unicode="&#xe681;" d="M807.253 682.24c-8.747 25.173-32.64 43.093-60.587 43.093h-106.667v85.333h-256v-85.333h-106.667c-27.947 0-51.84-17.92-60.587-43.093l-88.747-255.573v-341.333c0-23.467 19.2-42.667 42.667-42.667h42.667c23.68 0 42.667 19.2 42.667 42.667v42.667h512v-42.667c0-23.467 19.2-42.667 42.667-42.667h42.667c23.68 0 42.667 19.2 42.667 42.667v341.333l-88.747 255.573zM277.333 256c-35.413 0-64 28.587-64 64s28.587 64 64 64 64-28.587 64-64-28.587-64-64-64zM746.667 256c-35.413 0-64 28.587-64 64s28.587 64 64 64 64-28.587 64-64-28.587-64-64-64zM213.333 469.334l64 192h469.333l64-192h-597.333z" />
<glyph unicode="&#xe682;" d="M810.667 853.334h-597.333c-47.147 0-85.333-38.187-85.333-85.333v-597.333c0-47.147 38.187-85.333 85.333-85.333h170.667l128-128 128 128h170.667c47.147 0 85.333 38.187 85.333 85.333v597.333c0 47.147-38.187 85.333-85.333 85.333zM512 712.534c63.573 0 115.2-51.627 115.2-115.2s-51.627-115.2-115.2-115.2c-63.573 0-115.2 51.627-115.2 115.2s51.627 115.2 115.2 115.2zM768 256h-512v38.4c0 85.333 170.667 132.267 256 132.267s256-46.933 256-132.267v-38.4z" />
<glyph unicode="&#xe683;" d="M768 597.334c0 141.44-114.56 256-256 256s-256-114.56-256-256c0-192 256-469.333 256-469.333s256 277.333 256 469.333zM426.667 597.334c0 47.147 38.187 85.333 85.333 85.333s85.333-38.187 85.333-85.333-38.187-85.333-85.333-85.333-85.333 38.187-85.333 85.333zM213.333 85.334v-85.333h597.333v85.333h-597.333z" />
<glyph unicode="&#xe684;" d="M512 853.334c-164.907 0-298.667-133.76-298.667-298.667 0-224 298.667-554.667 298.667-554.667s298.667 330.667 298.667 554.667c0 164.907-133.76 298.667-298.667 298.667zM512 448c-58.88 0-106.667 47.787-106.667 106.667s47.787 106.667 106.667 106.667 106.667-47.787 106.667-106.667-47.787-106.667-106.667-106.667z" />
<glyph unicode="&#xe685;" d="M853.333 853.334h-682.667c-47.147 0-84.907-38.187-84.907-85.333l-0.427-768 170.667 170.667h597.333c47.147 0 85.333 38.187 85.333 85.333v512c0 47.147-38.187 85.333-85.333 85.333zM256 341.334v105.6l293.547 293.547c8.32 8.32 21.76 8.32 30.080 0l75.52-75.52c8.32-8.32 8.32-21.76 0-30.080l-293.547-293.547h-105.6zM768 341.334h-320l85.333 85.333h234.667v-85.333z" />
<glyph unicode="&#xe686;" d="M345.6 369.28l120.747 120.747-299.307 299.307c-66.56-66.56-66.56-174.72 0-241.28l178.56-178.773zM635.093 446.72c65.067-30.507 157.013-8.96 224.853 58.88 81.707 81.707 97.28 198.4 34.773 260.907-62.72 62.507-179.627 46.933-261.12-34.773-67.84-67.84-89.173-159.787-58.88-224.853-94.933-94.72-416.64-416.427-416.64-416.427l60.373-60.373 293.547 293.547 293.547-293.547 60.373 60.373-293.547 293.547 62.72 62.72z" />
<glyph unicode="&#xe687;" d="M853.333 768h-682.667v-85.333h682.667v85.333zM896 341.334v85.333l-42.667 213.333h-682.667l-42.667-213.333v-85.333h42.667v-256h426.667v256h170.667v-256h85.333v256h42.667zM512 170.667h-256v170.667h256v-170.667z" />
<glyph unicode="&#xe688;" d="M597.333 682.667l-160-213.333 121.6-162.133-68.267-51.2c-72.107 96-192 256-192 256l-256-341.333h938.667l-384 512z" />
<glyph unicode="&#xe689;" d="M170.667 597.334h170.667v170.667h-170.667v-170.667zM426.667 85.334h170.667v170.667h-170.667v-170.667zM170.667 85.334h170.667v170.667h-170.667v-170.667zM170.667 341.334h170.667v170.667h-170.667v-170.667zM426.667 341.334h170.667v170.667h-170.667v-170.667zM682.667 768v-170.667h170.667v170.667h-170.667zM426.667 597.334h170.667v170.667h-170.667v-170.667zM682.667 341.334h170.667v170.667h-170.667v-170.667zM682.667 85.334h170.667v170.667h-170.667v-170.667z" />
<glyph unicode="&#xe68a;" d="M853.333 469.334h-519.253l238.293 238.293-60.373 60.373-341.333-341.333 341.333-341.333 60.373 60.373-238.293 238.293h519.253v85.333z" />
<glyph unicode="&#xe68b;" d="M298.667 512l213.333-213.333 213.333 213.333z" />
<glyph unicode="&#xe68c;" d="M512 853.334c-235.733 0-426.667-190.933-426.667-426.667s190.933-426.667 426.667-426.667 426.667 190.933 426.667 426.667-190.933 426.667-426.667 426.667zM512 341.334l-170.667 170.667h341.333l-170.667-170.667z" />
<glyph unicode="&#xe68d;" d="M298.667 341.334l213.333 213.333 213.333-213.333z" />
<glyph unicode="&#xe68e;" d="M512 768l-60.373-60.373 238.293-238.293h-519.253v-85.333h519.253l-238.293-238.293 60.373-60.373 341.333 341.333z" />
<glyph unicode="&#xe68f;" d="M512 853.334c-235.733 0-426.667-190.933-426.667-426.667s190.933-426.667 426.667-426.667 426.667 190.933 426.667 426.667-190.933 426.667-426.667 426.667zM725.333 273.707l-60.373-60.373-152.96 152.96-152.96-152.96-60.373 60.373 152.96 152.96-152.96 152.96 60.373 60.373 152.96-152.96 152.96 152.96 60.373-60.373-152.96-152.96 152.96-152.96z" />
<glyph unicode="&#xe690;" d="M384 248.747l-177.92 177.92-60.373-60.373 238.293-238.293 512 512-60.373 60.373z" />
<glyph unicode="&#xe691;" d="M657.707 622.294l-60.373 60.373-256-256 256-256 60.373 60.373-195.627 195.627z" />
<glyph unicode="&#xe692;" d="M426.667 682.667l-60.373-60.373 195.627-195.627-195.627-195.627 60.373-60.373 256 256z" />
<glyph unicode="&#xe693;" d="M810.667 664.96l-60.373 60.373-238.293-238.293-238.293 238.293-60.373-60.373 238.293-238.293-238.293-238.293 60.373-60.373 238.293 238.293 238.293-238.293 60.373 60.373-238.293 238.293z" />
<glyph unicode="&#xe694;" d="M512 597.334l-256-256 60.373-60.373 195.627 195.627 195.627-195.627 60.373 60.373z" />
<glyph unicode="&#xe695;" d="M707.627 572.374l-195.627-195.627-195.627 195.627-60.373-60.373 256-256 256 256z" />
<glyph unicode="&#xe696;" d="M298.667 341.334h-85.333v-213.333h213.333v85.333h-128v128zM213.333 512h85.333v128h128v85.333h-213.333v-213.333zM725.333 213.334h-128v-85.333h213.333v213.333h-85.333v-128zM597.333 725.334v-85.333h128v-128h85.333v213.333h-213.333z" />
<glyph unicode="&#xe697;" d="M213.333 256h128v-128h85.333v213.333h-213.333v-85.333zM341.333 597.334h-128v-85.333h213.333v213.333h-85.333v-128zM597.333 128h85.333v128h128v85.333h-213.333v-213.333zM682.667 597.334v128h-85.333v-213.333h213.333v85.333h-128z" />
<glyph unicode="&#xe698;" d="M128 170.667h768v85.333h-768v-85.333zM128 384h768v85.333h-768v-85.333zM128 682.667v-85.333h768v85.333h-768z" />
<glyph unicode="&#xe699;" d="M256 512c-47.147 0-85.333-38.187-85.333-85.333s38.187-85.333 85.333-85.333 85.333 38.187 85.333 85.333-38.187 85.333-85.333 85.333zM768 512c-47.147 0-85.333-38.187-85.333-85.333s38.187-85.333 85.333-85.333 85.333 38.187 85.333 85.333-38.187 85.333-85.333 85.333zM512 512c-47.147 0-85.333-38.187-85.333-85.333s38.187-85.333 85.333-85.333 85.333 38.187 85.333 85.333-38.187 85.333-85.333 85.333z" />
<glyph unicode="&#xe69a;" d="M512 597.334c47.147 0 85.333 38.187 85.333 85.333s-38.187 85.333-85.333 85.333-85.333-38.187-85.333-85.333 38.187-85.333 85.333-85.333zM512 512c-47.147 0-85.333-38.187-85.333-85.333s38.187-85.333 85.333-85.333 85.333 38.187 85.333 85.333-38.187 85.333-85.333 85.333zM512 256c-47.147 0-85.333-38.187-85.333-85.333s38.187-85.333 85.333-85.333 85.333 38.187 85.333 85.333-38.187 85.333-85.333 85.333z" />
<glyph unicode="&#xe69b;" d="M753.067 667.734c-61.653 61.867-146.773 100.267-241.067 100.267-188.587 0-340.907-152.747-340.907-341.333s152.32-341.333 340.907-341.333c158.933 0 292.053 108.8 329.813 256h-88.747c-35.2-99.413-129.493-170.667-241.067-170.667-141.44 0-256 114.56-256 256s114.56 256 256 256c70.613 0 133.973-29.44 180.267-75.733l-137.6-137.6h298.667v298.667l-100.267-100.267z" />
<glyph unicode="&#xe69c;" d="M316.373 145.707l60.373-60.373 135.253 135.253 135.253-135.253 60.373 60.373-195.627 195.627-195.627-195.627zM707.627 707.627l-60.373 60.373-135.253-135.253-135.253 135.253-60.373-60.373 195.627-195.627 195.627 195.627z" />
<glyph unicode="&#xe69d;" d="M512 689.92l135.253-135.253 60.373 60.373-195.627 195.627-195.627-195.627 60.373-60.373 135.253 135.253zM512 163.414l-135.253 135.253-60.373-60.373 195.627-195.627 195.627 195.627-60.373 60.373-135.253-135.253z" />
<glyph unicode="&#xe69e;" d="M512 853.334c-235.733 0-426.667-190.933-426.667-426.667s190.933-426.667 426.667-426.667 426.667 190.933 426.667 426.667-190.933 426.667-426.667 426.667zM512 85.334c-188.587 0-341.333 152.747-341.333 341.333 0 78.933 27.093 151.253 71.893 209.067l478.507-478.507c-57.813-44.8-130.133-71.893-209.067-71.893zM781.44 217.6l-478.507 478.507c57.813 44.8 130.133 71.893 209.067 71.893 188.587 0 341.333-152.747 341.333-341.333 0-78.933-27.093-151.253-71.893-209.067z" />
<glyph unicode="&#xe69f;" d="M705.28 466.774l-45.227 45.227-208.213-208.213-90.453 90.453-45.227-45.227 135.68-135.68 253.44 253.44zM810.667 810.667h-42.667v85.333h-85.333v-85.333h-341.333v85.333h-85.333v-85.333h-42.667c-47.147 0-84.907-38.187-84.907-85.333l-0.427-597.333c0-47.147 38.187-85.333 85.333-85.333h597.333c47.147 0 85.333 38.187 85.333 85.333v597.333c0 47.147-38.187 85.333-85.333 85.333zM810.667 128h-597.333v469.333h597.333v-469.333z" />
<glyph unicode="&#xe6a0;" d="M938.667 810.667h-640c-29.44 0-52.693-14.933-68.053-37.547l-230.613-346.24 230.613-346.24c15.36-22.613 41.387-37.973 70.827-37.973h637.227c47.147 0 85.333 38.187 85.333 85.333v597.333c0 47.147-38.187 85.333-85.333 85.333zM384 362.667c-35.413 0-64 28.587-64 64s28.587 64 64 64 64-28.587 64-64-28.587-64-64-64zM597.333 362.667c-35.413 0-64 28.587-64 64s28.587 64 64 64 64-28.587 64-64-28.587-64-64-64zM810.667 362.667c-35.413 0-64 28.587-64 64s28.587 64 64 64 64-28.587 64-64-28.587-64-64-64z" />
<glyph unicode="&#xe6a1;" d="M853.333 682.667h-170.667v85.333l-85.333 85.333h-170.667l-85.333-85.333v-85.333h-170.667c-47.147 0-84.907-38.187-84.907-85.333l-0.427-469.333c0-47.147 38.187-85.333 85.333-85.333h682.667c47.147 0 85.333 38.187 85.333 85.333v469.333c0 47.147-38.187 85.333-85.333 85.333zM426.667 768h170.667v-85.333h-170.667v85.333zM512 128l-213.333 213.333h128v170.667h170.667v-170.667h128l-213.333-213.333z" />
<glyph unicode="&#xe6a2;" d="M853.333 682.667h-170.667v85.333l-85.333 85.333h-170.667l-85.333-85.333v-85.333h-170.667c-47.147 0-84.907-38.187-84.907-85.333l-0.427-469.333c0-47.147 38.187-85.333 85.333-85.333h682.667c47.147 0 85.333 38.187 85.333 85.333v469.333c0 47.147-38.187 85.333-85.333 85.333zM426.667 768h170.667v-85.333h-170.667v85.333zM448 192l-149.333 149.333 60.373 60.373 88.96-88.96 220.8 220.8 60.373-60.373-281.173-281.173z" />
<glyph unicode="&#xe6a3;" d="M768 853.334h-341.333l-255.147-256-0.853-512c0-46.933 38.4-85.333 85.333-85.333h512c46.933 0 85.333 38.4 85.333 85.333v682.667c0 46.933-38.4 85.333-85.333 85.333zM512 597.334h-85.333v170.667h85.333v-170.667zM640 597.334h-85.333v170.667h85.333v-170.667zM768 597.334h-85.333v170.667h85.333v-170.667z" />
<glyph unicode="&#xe6a4;" d="M768 853.334h-341.333l-254.933-256-1.067-512c0-46.933 38.4-85.333 85.333-85.333h512c46.933 0 85.333 38.4 85.333 85.333v682.667c0 46.933-38.4 85.333-85.333 85.333zM554.667 213.334h-85.333v85.333h85.333v-85.333zM554.667 384h-85.333v213.333h85.333v-213.333z" />
<glyph unicode="&#xe6a5;" d="M853.333 853.334h-682.667c-47.147 0-84.907-38.187-84.907-85.333l-0.427-768 170.667 170.667h597.333c47.147 0 85.333 38.187 85.333 85.333v512c0 47.147-38.187 85.333-85.333 85.333zM384 469.334h-85.333v85.333h85.333v-85.333zM554.667 469.334h-85.333v85.333h85.333v-85.333zM725.333 469.334h-85.333v85.333h85.333v-85.333z" />
<glyph unicode="&#xe6a6;" d="M853.333 853.334h-682.667c-47.147 0-84.907-38.187-84.907-85.333l-0.427-768 170.667 170.667h597.333c47.147 0 85.333 38.187 85.333 85.333v512c0 47.147-38.187 85.333-85.333 85.333zM554.667 341.334h-85.333v85.333h85.333v-85.333zM554.667 512h-85.333v170.667h85.333v-170.667z" />
<glyph unicode="&#xe6a7;" d="M853.333 853.334h-682.667c-47.147 0-84.907-38.187-84.907-85.333l-0.427-768 170.667 170.667h597.333c47.147 0 85.333 38.187 85.333 85.333v512c0 47.147-38.187 85.333-85.333 85.333zM768 341.334l-170.667 136.533v-136.533h-341.333v341.333h341.333v-136.533l170.667 136.533v-341.333z" />
<glyph unicode="&#xe6a8;" d="M490.667-0c47.147 0 85.333 38.187 85.333 85.333h-170.667c0-47.147 38.187-85.333 85.333-85.333zM768 256v234.667c0 131.2-91.093 240.64-213.333 269.653v29.013c0 35.413-28.587 64-64 64s-64-28.587-64-64v-29.013c-122.24-29.013-213.333-138.453-213.333-269.653v-234.667l-85.333-85.333v-42.667h725.333v42.667l-85.333 85.333z" />
<glyph unicode="&#xe6a9;" d="M490.667-0c47.147 0 85.333 38.187 85.333 85.333h-170.667c0-47.147 38.187-85.333 85.333-85.333zM768 256v234.667c0 131.2-91.093 240.64-213.333 269.653v29.013c0 35.413-28.587 64-64 64s-64-28.587-64-64v-29.013c-122.24-29.013-213.333-138.453-213.333-269.653v-234.667l-85.333-85.333v-42.667h725.333v42.667l-85.333 85.333zM682.667 213.334h-384v277.333c0 106.027 85.973 192 192 192s192-85.973 192-192v-277.333z" />
<glyph unicode="&#xe6aa;" d="M682.667 469.334c70.613 0 127.573 57.387 127.573 128s-56.96 128-127.573 128c-70.613 0-128-57.387-128-128s57.387-128 128-128zM341.333 469.334c70.613 0 127.573 57.387 127.573 128s-56.96 128-127.573 128c-70.613 0-128-57.387-128-128s57.387-128 128-128zM341.333 384c-99.627 0-298.667-49.92-298.667-149.333v-106.667h597.333v106.667c0 99.413-199.040 149.333-298.667 149.333zM682.667 384c-12.373 0-26.24-0.853-41.173-2.347 49.493-35.627 83.84-83.627 83.84-146.987v-106.667h256v106.667c0 99.413-199.040 149.333-298.667 149.333z" />
<glyph unicode="&#xe6ab;" d="M704 384c-51.413 0-131.2-14.293-192-42.88-60.8 28.587-140.587 42.88-192 42.88-92.373 0-277.333-46.293-277.333-138.667v-117.333h938.667v117.333c0 92.373-184.96 138.667-277.333 138.667zM533.333 192h-426.667v53.333c0 22.827 109.227 74.667 213.333 74.667s213.333-51.84 213.333-74.667v-53.333zM917.333 192h-320v53.333c0 19.413-8.533 36.693-22.187 52.053 37.76 12.8 83.84 22.613 128.853 22.613 104.107 0 213.333-51.84 213.333-74.667v-53.333zM320 426.667c82.56 0 149.333 66.987 149.333 149.333s-66.773 149.333-149.333 149.333c-82.347 0-149.333-66.987-149.333-149.333s66.987-149.333 149.333-149.333zM320 661.334c47.147 0 85.333-38.187 85.333-85.333s-38.187-85.333-85.333-85.333-85.333 38.187-85.333 85.333 38.187 85.333 85.333 85.333zM704 426.667c82.56 0 149.333 66.987 149.333 149.333s-66.773 149.333-149.333 149.333c-82.347 0-149.333-66.987-149.333-149.333s66.987-149.333 149.333-149.333zM704 661.334c47.147 0 85.333-38.187 85.333-85.333s-38.187-85.333-85.333-85.333-85.333 38.187-85.333 85.333 38.187 85.333 85.333 85.333z" />
<glyph unicode="&#xe6ac;" d="M512 426.667c94.293 0 170.667 76.587 170.667 170.667 0 94.293-76.373 170.667-170.667 170.667s-170.667-76.373-170.667-170.667c0-94.080 76.373-170.667 170.667-170.667zM512 341.334c-113.707 0-341.333-56.96-341.333-170.667v-85.333h682.667v85.333c0 113.707-227.627 170.667-341.333 170.667z" />
<glyph unicode="&#xe6ad;" d="M512 686.934c49.493 0 89.6-40.107 89.6-89.6s-40.107-89.6-89.6-89.6-89.6 40.107-89.6 89.6 40.107 89.6 89.6 89.6zM512 302.934c126.933 0 260.267-62.080 260.267-89.6v-46.933h-520.533v46.933c0 27.52 133.333 89.6 260.267 89.6zM512 768c-94.293 0-170.667-76.373-170.667-170.667 0-94.080 76.373-170.667 170.667-170.667s170.667 76.587 170.667 170.667c0 94.293-76.373 170.667-170.667 170.667zM512 384c-113.707 0-341.333-56.96-341.333-170.667v-128h682.667v128c0 113.707-227.627 170.667-341.333 170.667z" />
<glyph unicode="&#xe6ae;" d="M512 853.334c-235.733 0-426.667-190.933-426.667-426.667s190.933-426.667 426.667-426.667 426.667 190.933 426.667 426.667-190.933 426.667-426.667 426.667zM469.333 88.32c-168.32 20.907-298.667 164.267-298.667 338.347 0 26.24 3.2 51.84 8.96 76.373l204.373-204.373v-42.667c0-47.147 38.187-85.333 85.333-85.333v-82.347zM763.52 196.48c-10.88 34.56-42.88 59.52-80.853 59.52h-42.667v128c0 23.467-19.2 42.667-42.667 42.667h-256v85.333h85.333c23.467 0 42.667 19.2 42.667 42.667v85.333h85.333c47.147 0 85.333 38.187 85.333 85.333v17.707c125.013-50.56 213.333-173.013 213.333-316.373 0-88.747-34.133-169.387-89.813-230.187z" />
<glyph unicode="&#xe6af;" d="M213.333 376.32v-170.667l298.667-162.987 298.667 162.987v170.667l-298.667-162.987-298.667 162.987zM512 810.667l-469.333-256 469.333-256 384 209.493v-294.827h85.333v341.333l-469.333 256z" />
<glyph unicode="&#xe6b0;" d="M768 252.374c-32.427 0-61.653-12.587-83.84-32.853l-304 177.28c2.347 9.6 3.84 19.627 3.84 29.867s-1.493 20.267-3.84 29.867l300.8 175.573c22.827-21.333 53.333-34.56 87.040-34.56 70.613 0 128 57.387 128 128s-57.387 128-128 128-128-57.387-128-128c0-10.24 1.493-20.267 3.84-29.867l-300.8-175.573c-22.827 21.333-53.333 34.56-87.040 34.56-70.613 0-128-57.387-128-128s57.387-128 128-128c33.707 0 64.213 13.227 87.040 34.56l304-177.28c-2.133-8.96-3.413-18.347-3.413-27.947 0-68.693 55.68-124.373 124.373-124.373s124.373 55.68 124.373 124.373-55.68 124.373-124.373 124.373z" />
<glyph unicode="&#xe6b1;" d="M810.667 810.667h-597.333c-47.36 0-85.333-38.4-85.333-85.333v-597.333c0-46.933 37.973-85.333 85.333-85.333h597.333c47.36 0 85.333 38.4 85.333 85.333v597.333c0 46.933-37.973 85.333-85.333 85.333zM426.667 213.334l-213.333 213.333 60.16 60.16 153.173-152.747 323.84 323.84 60.16-60.587-384-384z" />
<glyph unicode="&#xe6b2;" d="M810.667 725.334v-597.333h-597.333v597.333h597.333zM810.667 810.667h-597.333c-46.933 0-85.333-38.4-85.333-85.333v-597.333c0-46.933 38.4-85.333 85.333-85.333h597.333c46.933 0 85.333 38.4 85.333 85.333v597.333c0 46.933-38.4 85.333-85.333 85.333z" />
<glyph unicode="&#xe6b3;" d="M512 853.334c-235.52 0-426.667-191.147-426.667-426.667s191.147-426.667 426.667-426.667 426.667 191.147 426.667 426.667-191.147 426.667-426.667 426.667zM512 85.334c-188.587 0-341.333 152.747-341.333 341.333s152.747 341.333 341.333 341.333 341.333-152.747 341.333-341.333-152.747-341.333-341.333-341.333z" />
<glyph unicode="&#xe6b4;" d="M512 640c-117.76 0-213.333-95.573-213.333-213.333s95.573-213.333 213.333-213.333 213.333 95.573 213.333 213.333-95.573 213.333-213.333 213.333zM512 853.334c-235.52 0-426.667-191.147-426.667-426.667s191.147-426.667 426.667-426.667 426.667 191.147 426.667 426.667-191.147 426.667-426.667 426.667zM512 85.334c-188.587 0-341.333 152.747-341.333 341.333s152.747 341.333 341.333 341.333 341.333-152.747 341.333-341.333-152.747-341.333-341.333-341.333z" />
<glyph unicode="&#xe6b5;" d="M512 201.814l263.68-159.147-69.973 299.947 232.96 201.813-306.773 26.027-119.893 282.88-119.893-282.88-306.773-26.027 232.96-201.813-69.973-299.947z" />
<glyph unicode="&#xe6b6;" d="M938.667 523.094l-306.773 26.453-119.893 282.453-119.893-282.88-306.773-26.027 232.96-201.813-69.973-299.947 263.68 159.147 263.68-159.147-69.547 299.947 232.533 201.813zM512 260.267v396.8l72.96-172.373 186.88-16.213-141.653-122.88 42.667-182.613-160.853 97.28z" />
<glyph unicode="&#xe6b7;" d="M938.667 544.427l-306.773 26.453-119.893 282.453-119.893-282.88-306.773-26.027 232.96-201.813-69.973-299.947 263.68 159.147 263.68-159.147-69.547 299.947 232.533 201.813zM512 281.6l-160.427-96.853 42.667 182.613-141.653 122.88 186.88 16.213 72.533 171.947 72.96-172.373 186.88-16.213-141.653-122.88 42.667-182.613-160.853 97.28z" />
<glyph unicode="&#xe6b8;" d="M469.333 213.334h85.333v256h-85.333v-256zM512 853.334c-235.733 0-426.667-190.933-426.667-426.667s190.933-426.667 426.667-426.667 426.667 190.933 426.667 426.667-190.933 426.667-426.667 426.667zM512 85.334c-188.16 0-341.333 153.173-341.333 341.333s153.173 341.333 341.333 341.333 341.333-153.173 341.333-341.333-153.173-341.333-341.333-341.333zM469.333 554.667h85.333v85.333h-85.333v-85.333z" />
<glyph unicode="&#xe6b9;" d="M512 853.334c-164.907 0-298.667-133.76-298.667-298.667 0-224 298.667-554.667 298.667-554.667s298.667 330.667 298.667 554.667c0 164.907-133.76 298.667-298.667 298.667zM512 448c-58.88 0-106.667 47.787-106.667 106.667s47.787 106.667 106.667 106.667 106.667-47.787 106.667-106.667-47.787-106.667-106.667-106.667z" />
<glyph unicode="&#xe6ba;" d="M661.333 341.334h-33.92l-11.733 11.733c41.813 48.427 66.987 111.36 66.987 180.267 0 153.173-124.16 277.333-277.333 277.333s-277.333-124.16-277.333-277.333 124.16-277.333 277.333-277.333c68.907 0 131.84 25.173 180.267 66.773l11.733-11.733v-33.707l213.333-212.907 63.573 63.573-212.907 213.333zM405.333 341.334c-106.027 0-192 85.973-192 192s85.973 192 192 192 192-85.973 192-192-85.973-192-192-192z" />
<glyph unicode="&#xe6bb;" d="M829.013 385.067c1.707 13.653 2.987 27.52 2.987 41.6s-1.28 27.947-2.987 41.6l90.24 70.613c8.107 6.4 10.453 17.92 5.12 27.307l-85.333 147.84c-5.333 9.173-16.427 13.013-26.027 9.173l-106.24-42.88c-21.973 16.853-46.080 31.147-72.107 42.027l-16 113.067c-1.92 10.027-10.667 17.92-21.333 17.92h-170.667c-10.667 0-19.413-7.893-21.12-17.92l-16-113.067c-26.027-10.88-50.133-24.96-72.107-42.027l-106.24 42.88c-9.6 3.627-20.693 0-26.027-9.173l-85.333-147.84c-5.333-9.173-2.987-20.693 5.12-27.307l90.027-70.613c-1.707-13.653-2.987-27.52-2.987-41.6s1.28-27.947 2.987-41.6l-90.027-70.613c-8.107-6.4-10.453-17.92-5.12-27.307l85.333-147.84c5.333-9.173 16.427-13.013 26.027-9.173l106.24 42.88c21.973-16.853 46.080-31.147 72.107-42.027l16-113.067c1.707-10.027 10.453-17.92 21.12-17.92h170.667c10.667 0 19.413 7.893 21.12 17.92l16 113.067c26.027 10.88 50.133 24.96 72.107 42.027l106.24-42.88c9.6-3.627 20.693 0 26.027 9.173l85.333 147.84c5.333 9.173 2.987 20.693-5.12 27.307l-90.027 70.613zM512 277.334c-82.56 0-149.333 66.773-149.333 149.333s66.773 149.333 149.333 149.333 149.333-66.773 149.333-149.333-66.773-149.333-149.333-149.333z" />
<glyph unicode="&#xe6bc;" d="M469.333 384v-256h-213.333v-85.333h512v85.333h-213.333v256l341.333 341.333v85.333h-768v-85.333l341.333-341.333zM320 640l-85.333 85.333h554.667l-85.333-85.333h-384z" />
<glyph unicode="&#xe6bd;" d="M853.333 810.667h-682.667v-426.667c0-94.293 76.373-170.667 170.667-170.667h256c94.293 0 170.667 76.373 170.667 170.667v128h85.333c47.147 0 85.333 38.187 85.333 85.333v128c0 47.147-38.187 85.333-85.333 85.333zM853.333 597.334h-85.333v128h85.333v-128zM85.333 42.667h768v85.333h-768v-85.333z" />
<glyph unicode="&#xe6be;" d="M341.333 512h-128v128h-85.333v-128h-128v-85.333h128v-128h85.333v128h128v85.333zM768 469.334c70.613 0 127.573 57.387 127.573 128s-56.96 128-127.573 128c-13.653 0-26.667-2.133-39.040-6.187 24.107-34.56 38.613-76.587 38.613-121.813s-14.507-87.253-38.613-121.813c12.373-4.053 25.387-6.187 39.040-6.187zM554.667 469.334c70.613 0 127.573 57.387 127.573 128s-56.96 128-127.573 128c-70.613 0-128-57.387-128-128s57.387-128 128-128zM837.12 377.174c35.413-30.933 58.88-70.827 58.88-121.173v-85.333h128v85.333c0 65.707-101.333 106.027-186.88 121.173zM554.667 384c-85.333 0-256-42.667-256-128v-85.333h512v85.333c0 85.333-170.667 128-256 128z" />
<glyph unicode="&#xe6bf;" d="M640 469.334v256l-128 128-128-128v-85.333h-256v-597.333h768v426.667h-256zM298.667 128h-85.333v85.333h85.333v-85.333zM298.667 298.667h-85.333v85.333h85.333v-85.333zM298.667 469.334h-85.333v85.333h85.333v-85.333zM554.667 128h-85.333v85.333h85.333v-85.333zM554.667 298.667h-85.333v85.333h85.333v-85.333zM554.667 469.334h-85.333v85.333h85.333v-85.333zM554.667 640h-85.333v85.333h85.333v-85.333zM810.667 128h-85.333v85.333h85.333v-85.333zM810.667 298.667h-85.333v85.333h85.333v-85.333z" />
<glyph unicode="&#xe6c0;" d="M511.787 853.334c-235.733 0-426.453-190.933-426.453-426.667s190.72-426.667 426.453-426.667c235.733 0 426.88 190.933 426.88 426.667s-191.147 426.667-426.88 426.667zM512 85.334c-188.587 0-341.333 152.747-341.333 341.333s152.747 341.333 341.333 341.333 341.333-152.747 341.333-341.333-152.747-341.333-341.333-341.333zM661.333 469.334c35.413 0 64 28.587 64 64s-28.587 64-64 64-64-28.587-64-64 28.587-64 64-64zM362.667 469.334c35.413 0 64 28.587 64 64s-28.587 64-64 64-64-28.587-64-64 28.587-64 64-64zM512 192c99.413 0 183.68 62.080 217.813 149.333h-435.627c34.133-87.253 118.4-149.333 217.813-149.333z" />
<glyph unicode="&#xf000;" d="M970.857 844.571q0-20-24.571-44.571l-361.143-361.143v-438.857h182.857q14.857 0 25.714-10.857t10.857-25.714-10.857-25.714-25.714-10.857h-512q-14.857 0-25.714 10.857t-10.857 25.714 10.857 25.714 25.714 10.857h182.857v438.857l-361.143 361.143q-24.571 24.571-24.571 44.571 0 13.143 10.286 20.857t21.714 10 24.571 2.286h804.571q13.143 0 24.571-2.286t21.714-10 10.286-20.857z" />
<glyph unicode="&#xf001;" d="M877.714 822.857v-640q0-28.571-19.429-50.857t-49.143-34.571-59.143-18.286-55.143-6-55.143 6-59.143 18.286-49.143 34.571-19.429 50.857 19.429 50.857 49.143 34.571 59.143 18.286 55.143 6q60 0 109.714-22.286v306.857l-438.857-135.429v-405.143q0-28.571-19.429-50.857t-49.143-34.571-59.143-18.286-55.143-6-55.143 6-59.143 18.286-49.143 34.571-19.429 50.857 19.429 50.857 49.143 34.571 59.143 18.286 55.143 6q60 0 109.714-22.286v552.571q0 17.714 10.857 32.286t28 20.286l475.429 146.286q6.857 2.286 16 2.286 22.857 0 38.857-16t16-38.857z" />
<glyph unicode="&#xf002;" d="M658.286 475.428q0 105.714-75.143 180.857t-180.857 75.143-180.857-75.143-75.143-180.857 75.143-180.857 180.857-75.143 180.857 75.143 75.143 180.857zM950.857 0q0-29.714-21.714-51.429t-51.429-21.714q-30.857 0-51.429 21.714l-196 195.429q-102.286-70.857-228-70.857-81.714 0-156.286 31.714t-128.571 85.714-85.714 128.571-31.714 156.286 31.714 156.286 85.714 128.571 128.571 85.714 156.286 31.714 156.286-31.714 128.571-85.714 85.714-128.571 31.714-156.286q0-125.714-70.857-228l196-196q21.143-21.143 21.143-51.429z" horiz-adv-x="951" />
<glyph unicode="&#xf003;" d="M950.857 91.428v438.857q-18.286-20.571-39.429-37.714-153.143-117.714-243.429-193.143-29.143-24.571-47.429-38.286t-49.429-27.714-58.571-14h-1.143q-27.429 0-58.571 14t-49.429 27.714-47.429 38.286q-90.286 75.429-243.429 193.143-21.143 17.143-39.429 37.714v-438.857q0-7.429 5.429-12.857t12.857-5.429h841.143q7.429 0 12.857 5.429t5.429 12.857zM950.857 692v14t-0.286 7.429-1.714 7.143-3.143 5.143-5.143 4.286-8 1.429h-841.143q-7.429 0-12.857-5.429t-5.429-12.857q0-96 84-162.286 110.286-86.857 229.143-181.143 3.429-2.857 20-16.857t26.286-21.429 25.429-18 28.857-15.714 24.571-5.143h1.143q11.429 0 24.571 5.143t28.857 15.714 25.429 18 26.286 21.429 20 16.857q118.857 94.286 229.143 181.143 30.857 24.571 57.429 66t26.571 75.143zM1024 713.143v-621.714q0-37.714-26.857-64.571t-64.571-26.857h-841.143q-37.714 0-64.571 26.857t-26.857 64.571v621.714q0 37.714 26.857 64.571t64.571 26.857h841.143q37.714 0 64.571-26.857t26.857-64.571z" />
<glyph unicode="&#xf004;" d="M512 0q-14.857 0-25.143 10.286l-356.571 344q-5.714 4.571-15.714 14.857t-31.714 37.429-38.857 55.714-30.571 69.143-13.429 78.857q0 125.714 72.571 196.571t200.571 70.857q35.429 0 72.286-12.286t68.571-33.143 54.571-39.143 43.429-38.857q20.571 20.571 43.429 38.857t54.571 39.143 68.571 33.143 72.286 12.286q128 0 200.571-70.857t72.571-196.571q0-126.286-130.857-257.143l-356-342.857q-10.286-10.286-25.143-10.286z" />
<glyph unicode="&#xf005;" d="M950.857 581.143q0-12.571-14.857-27.429l-207.429-202.286 49.143-285.714q0.571-4 0.571-11.429 0-12-6-20.286t-17.429-8.286q-10.857 0-22.857 6.857l-256.571 134.857-256.571-134.857q-12.571-6.857-22.857-6.857-12 0-18 8.286t-6 20.286q0 3.429 1.143 11.429l49.143 285.714-208 202.286q-14.286 15.429-14.286 27.429 0 21.143 32 26.286l286.857 41.714 128.571 260q10.857 23.429 28 23.429t28-23.429l128.571-260 286.857-41.714q32-5.143 32-26.286z" horiz-adv-x="951" />
<glyph unicode="&#xf006;" d="M649.714 377.143l174.857 169.714-241.143 35.429-108 218.286-108-218.286-241.143-35.429 174.857-169.714-41.714-240.571 216 113.714 215.429-113.714zM950.857 581.143q0-12.571-14.857-27.429l-207.429-202.286 49.143-285.714q0.571-4 0.571-11.429 0-28.571-23.429-28.571-10.857 0-22.857 6.857l-256.571 134.857-256.571-134.857q-12.571-6.857-22.857-6.857-12 0-18 8.286t-6 20.286q0 3.429 1.143 11.429l49.143 285.714-208 202.286q-14.286 15.429-14.286 27.429 0 21.143 32 26.286l286.857 41.714 128.571 260q10.857 23.429 28 23.429t28-23.429l128.571-260 286.857-41.714q32-5.143 32-26.286z" horiz-adv-x="951" />
<glyph unicode="&#xf007;" d="M804.571 148q0-68.571-41.714-108.286t-110.857-39.714h-499.429q-69.143 0-110.857 39.714t-41.714 108.286q0 30.286 2 59.143t8 62.286 15.143 62 24.571 55.714 35.429 46.286 48.857 30.571 63.714 11.429q5.143 0 24-12.286t42.571-27.429 61.714-27.429 76.286-12.286 76.286 12.286 61.714 27.429 42.571 27.429 24 12.286q34.857 0 63.714-11.429t48.857-30.571 35.429-46.286 24.571-55.714 15.143-62 8-62.286 2-59.143zM621.714 658.286q0-90.857-64.286-155.143t-155.143-64.286-155.143 64.286-64.286 155.143 64.286 155.143 155.143 64.286 155.143-64.286 64.286-155.143z" horiz-adv-x="805" />
<glyph unicode="&#xf008;" d="M219.429 36.571v73.143q0 14.857-10.857 25.714t-25.714 10.857h-73.143q-14.857 0-25.714-10.857t-10.857-25.714v-73.143q0-14.857 10.857-25.714t25.714-10.857h73.143q14.857 0 25.714 10.857t10.857 25.714zM219.429 256v73.143q0 14.857-10.857 25.714t-25.714 10.857h-73.143q-14.857 0-25.714-10.857t-10.857-25.714v-73.143q0-14.857 10.857-25.714t25.714-10.857h73.143q14.857 0 25.714 10.857t10.857 25.714zM219.429 475.428v73.143q0 14.857-10.857 25.714t-25.714 10.857h-73.143q-14.857 0-25.714-10.857t-10.857-25.714v-73.143q0-14.857 10.857-25.714t25.714-10.857h73.143q14.857 0 25.714 10.857t10.857 25.714zM804.571 36.571v292.571q0 14.857-10.857 25.714t-25.714 10.857h-438.857q-14.857 0-25.714-10.857t-10.857-25.714v-292.571q0-14.857 10.857-25.714t25.714-10.857h438.857q14.857 0 25.714 10.857t10.857 25.714zM219.429 694.857v73.143q0 14.857-10.857 25.714t-25.714 10.857h-73.143q-14.857 0-25.714-10.857t-10.857-25.714v-73.143q0-14.857 10.857-25.714t25.714-10.857h73.143q14.857 0 25.714 10.857t10.857 25.714zM1024 36.571v73.143q0 14.857-10.857 25.714t-25.714 10.857h-73.143q-14.857 0-25.714-10.857t-10.857-25.714v-73.143q0-14.857 10.857-25.714t25.714-10.857h73.143q14.857 0 25.714 10.857t10.857 25.714zM804.571 475.428v292.571q0 14.857-10.857 25.714t-25.714 10.857h-438.857q-14.857 0-25.714-10.857t-10.857-25.714v-292.571q0-14.857 10.857-25.714t25.714-10.857h438.857q14.857 0 25.714 10.857t10.857 25.714zM1024 256v73.143q0 14.857-10.857 25.714t-25.714 10.857h-73.143q-14.857 0-25.714-10.857t-10.857-25.714v-73.143q0-14.857 10.857-25.714t25.714-10.857h73.143q14.857 0 25.714 10.857t10.857 25.714zM1024 475.428v73.143q0 14.857-10.857 25.714t-25.714 10.857h-73.143q-14.857 0-25.714-10.857t-10.857-25.714v-73.143q0-14.857 10.857-25.714t25.714-10.857h73.143q14.857 0 25.714 10.857t10.857 25.714zM1024 694.857v73.143q0 14.857-10.857 25.714t-25.714 10.857h-73.143q-14.857 0-25.714-10.857t-10.857-25.714v-73.143q0-14.857 10.857-25.714t25.714-10.857h73.143q14.857 0 25.714 10.857t10.857 25.714zM1097.143 786.286v-768q0-37.714-26.857-64.571t-64.571-26.857h-914.286q-37.714 0-64.571 26.857t-26.857 64.571v768q0 37.714 26.857 64.571t64.571 26.857h914.286q37.714 0 64.571-26.857t26.857-64.571z" horiz-adv-x="1097" />
<glyph unicode="&#xf009;" d="M438.857 365.714v-219.429q0-29.714-21.714-51.429t-51.429-21.714h-292.571q-29.714 0-51.429 21.714t-21.714 51.429v219.429q0 29.714 21.714 51.429t51.429 21.714h292.571q29.714 0 51.429-21.714t21.714-51.429zM438.857 804.571v-219.429q0-29.714-21.714-51.429t-51.429-21.714h-292.571q-29.714 0-51.429 21.714t-21.714 51.429v219.429q0 29.714 21.714 51.429t51.429 21.714h292.571q29.714 0 51.429-21.714t21.714-51.429zM950.857 365.714v-219.429q0-29.714-21.714-51.429t-51.429-21.714h-292.571q-29.714 0-51.429 21.714t-21.714 51.429v219.429q0 29.714 21.714 51.429t51.429 21.714h292.571q29.714 0 51.429-21.714t21.714-51.429zM950.857 804.571v-219.429q0-29.714-21.714-51.429t-51.429-21.714h-292.571q-29.714 0-51.429 21.714t-21.714 51.429v219.429q0 29.714 21.714 51.429t51.429 21.714h292.571q29.714 0 51.429-21.714t21.714-51.429z" horiz-adv-x="951" />
<glyph unicode="&#xf00a;" d="M292.571 237.714v-109.714q0-22.857-16-38.857t-38.857-16h-182.857q-22.857 0-38.857 16t-16 38.857v109.714q0 22.857 16 38.857t38.857 16h182.857q22.857 0 38.857-16t16-38.857zM292.571 530.286v-109.714q0-22.857-16-38.857t-38.857-16h-182.857q-22.857 0-38.857 16t-16 38.857v109.714q0 22.857 16 38.857t38.857 16h182.857q22.857 0 38.857-16t16-38.857zM658.286 237.714v-109.714q0-22.857-16-38.857t-38.857-16h-182.857q-22.857 0-38.857 16t-16 38.857v109.714q0 22.857 16 38.857t38.857 16h182.857q22.857 0 38.857-16t16-38.857zM292.571 822.857v-109.714q0-22.857-16-38.857t-38.857-16h-182.857q-22.857 0-38.857 16t-16 38.857v109.714q0 22.857 16 38.857t38.857 16h182.857q22.857 0 38.857-16t16-38.857zM658.286 530.286v-109.714q0-22.857-16-38.857t-38.857-16h-182.857q-22.857 0-38.857 16t-16 38.857v109.714q0 22.857 16 38.857t38.857 16h182.857q22.857 0 38.857-16t16-38.857zM1024 237.714v-109.714q0-22.857-16-38.857t-38.857-16h-182.857q-22.857 0-38.857 16t-16 38.857v109.714q0 22.857 16 38.857t38.857 16h182.857q22.857 0 38.857-16t16-38.857zM658.286 822.857v-109.714q0-22.857-16-38.857t-38.857-16h-182.857q-22.857 0-38.857 16t-16 38.857v109.714q0 22.857 16 38.857t38.857 16h182.857q22.857 0 38.857-16t16-38.857zM1024 530.286v-109.714q0-22.857-16-38.857t-38.857-16h-182.857q-22.857 0-38.857 16t-16 38.857v109.714q0 22.857 16 38.857t38.857 16h182.857q22.857 0 38.857-16t16-38.857zM1024 822.857v-109.714q0-22.857-16-38.857t-38.857-16h-182.857q-22.857 0-38.857 16t-16 38.857v109.714q0 22.857 16 38.857t38.857 16h182.857q22.857 0 38.857-16t16-38.857z" />
<glyph unicode="&#xf00b;" d="M292.571 237.714v-109.714q0-22.857-16-38.857t-38.857-16h-182.857q-22.857 0-38.857 16t-16 38.857v109.714q0 22.857 16 38.857t38.857 16h182.857q22.857 0 38.857-16t16-38.857zM292.571 530.286v-109.714q0-22.857-16-38.857t-38.857-16h-182.857q-22.857 0-38.857 16t-16 38.857v109.714q0 22.857 16 38.857t38.857 16h182.857q22.857 0 38.857-16t16-38.857zM1024 237.714v-109.714q0-22.857-16-38.857t-38.857-16h-548.571q-22.857 0-38.857 16t-16 38.857v109.714q0 22.857 16 38.857t38.857 16h548.571q22.857 0 38.857-16t16-38.857zM292.571 822.857v-109.714q0-22.857-16-38.857t-38.857-16h-182.857q-22.857 0-38.857 16t-16 38.857v109.714q0 22.857 16 38.857t38.857 16h182.857q22.857 0 38.857-16t16-38.857zM1024 530.286v-109.714q0-22.857-16-38.857t-38.857-16h-548.571q-22.857 0-38.857 16t-16 38.857v109.714q0 22.857 16 38.857t38.857 16h548.571q22.857 0 38.857-16t16-38.857zM1024 822.857v-109.714q0-22.857-16-38.857t-38.857-16h-548.571q-22.857 0-38.857 16t-16 38.857v109.714q0 22.857 16 38.857t38.857 16h548.571q22.857 0 38.857-16t16-38.857z" />
<glyph unicode="&#xf00c;" d="M954.857 627.428q0-22.857-16-38.857l-491.429-491.429q-16-16-38.857-16t-38.857 16l-284.571 284.571q-16 16-16 38.857t16 38.857l77.714 77.714q16 16 38.857 16t38.857-16l168-168.571 374.857 375.429q16 16 38.857 16t38.857-16l77.714-77.714q16-16 16-38.857z" />
<glyph unicode="&#xf00d;" d="M741.714 195.428q0-22.857-16-38.857l-77.714-77.714q-16-16-38.857-16t-38.857 16l-168 168-168-168q-16-16-38.857-16t-38.857 16l-77.714 77.714q-16 16-16 38.857t16 38.857l168 168-168 168q-16 16-16 38.857t16 38.857l77.714 77.714q16 16 38.857 16t38.857-16l168-168 168 168q16 16 38.857 16t38.857-16l77.714-77.714q16-16 16-38.857t-16-38.857l-168-168 168-168q16-16 16-38.857z" horiz-adv-x="805" />
<glyph unicode="&#xf00e;" d="M585.143 493.714v-36.571q0-7.429-5.429-12.857t-12.857-5.429h-128v-128q0-7.429-5.429-12.857t-12.857-5.429h-36.571q-7.429 0-12.857 5.429t-5.429 12.857v128h-128q-7.429 0-12.857 5.429t-5.429 12.857v36.571q0 7.429 5.429 12.857t12.857 5.429h128v128q0 7.429 5.429 12.857t12.857 5.429h36.571q7.429 0 12.857-5.429t5.429-12.857v-128h128q7.429 0 12.857-5.429t5.429-12.857zM658.286 475.428q0 105.714-75.143 180.857t-180.857 75.143-180.857-75.143-75.143-180.857 75.143-180.857 180.857-75.143 180.857 75.143 75.143 180.857zM950.857 0q0-30.286-21.429-51.714t-51.714-21.429q-30.857 0-51.429 21.714l-196 195.429q-102.286-70.857-228-70.857-81.714 0-156.286 31.714t-128.571 85.714-85.714 128.571-31.714 156.286 31.714 156.286 85.714 128.571 128.571 85.714 156.286 31.714 156.286-31.714 128.571-85.714 85.714-128.571 31.714-156.286q0-125.714-70.857-228l196-196q21.143-21.143 21.143-51.429z" horiz-adv-x="951" />
<glyph unicode="&#xf010;" d="M585.143 493.714v-36.571q0-7.429-5.429-12.857t-12.857-5.429h-329.143q-7.429 0-12.857 5.429t-5.429 12.857v36.571q0 7.429 5.429 12.857t12.857 5.429h329.143q7.429 0 12.857-5.429t5.429-12.857zM658.286 475.428q0 105.714-75.143 180.857t-180.857 75.143-180.857-75.143-75.143-180.857 75.143-180.857 180.857-75.143 180.857 75.143 75.143 180.857zM950.857 0q0-30.286-21.429-51.714t-51.714-21.429q-30.857 0-51.429 21.714l-196 195.429q-102.286-70.857-228-70.857-81.714 0-156.286 31.714t-128.571 85.714-85.714 128.571-31.714 156.286 31.714 156.286 85.714 128.571 128.571 85.714 156.286 31.714 156.286-31.714 128.571-85.714 85.714-128.571 31.714-156.286q0-125.714-70.857-228l196-196q21.143-21.143 21.143-51.429z" horiz-adv-x="951" />
<glyph unicode="&#xf011;" d="M877.714 438.857q0-89.143-34.857-170.286t-93.714-140-140-93.714-170.286-34.857-170.286 34.857-140 93.714-93.714 140-34.857 170.286q0 104 46 196t129.429 154.286q24.571 18.286 54.571 14.286t47.714-28.571q18.286-24 14-54t-28.286-48.286q-56-42.286-86.571-103.429t-30.571-130.286q0-59.429 23.143-113.429t62.571-93.429 93.429-62.571 113.429-23.143 113.429 23.143 93.429 62.571 62.571 93.429 23.143 113.429q0 69.143-30.571 130.286t-86.571 103.429q-24 18.286-28.286 48.286t14 54q17.714 24.571 48 28.571t54.286-14.286q83.429-62.286 129.429-154.286t46-196zM512 877.714v-365.714q0-29.714-21.714-51.429t-51.429-21.714-51.429 21.714-21.714 51.429v365.714q0 29.714 21.714 51.429t51.429 21.714 51.429-21.714 21.714-51.429z" />
<glyph unicode="&#xf012;" d="M146.286 128v-109.714q0-8-5.143-13.143t-13.143-5.143h-109.714q-8 0-13.143 5.143t-5.143 13.143v109.714q0 8 5.143 13.143t13.143 5.143h109.714q8 0 13.143-5.143t5.143-13.143zM365.714 201.143v-182.857q0-8-5.143-13.143t-13.143-5.143h-109.714q-8 0-13.143 5.143t-5.143 13.143v182.857q0 8 5.143 13.143t13.143 5.143h109.714q8 0 13.143-5.143t5.143-13.143zM585.143 347.428v-329.143q0-8-5.143-13.143t-13.143-5.143h-109.714q-8 0-13.143 5.143t-5.143 13.143v329.143q0 8 5.143 13.143t13.143 5.143h109.714q8 0 13.143-5.143t5.143-13.143zM804.571 566.857v-548.571q0-8-5.143-13.143t-13.143-5.143h-109.714q-8 0-13.143 5.143t-5.143 13.143v548.571q0 8 5.143 13.143t13.143 5.143h109.714q8 0 13.143-5.143t5.143-13.143zM1024 859.428v-841.143q0-8-5.143-13.143t-13.143-5.143h-109.714q-8 0-13.143 5.143t-5.143 13.143v841.143q0 8 5.143 13.143t13.143 5.143h109.714q8 0 13.143-5.143t5.143-13.143z" />
<glyph unicode="&#xf013;" d="M585.143 438.857q0 60.571-42.857 103.429t-103.429 42.857-103.429-42.857-42.857-103.429 42.857-103.429 103.429-42.857 103.429 42.857 42.857 103.429zM877.714 501.143v-126.857q0-6.857-4.571-13.143t-11.429-7.429l-105.714-16q-10.857-30.857-22.286-52 20-28.571 61.143-78.857 5.714-6.857 5.714-14.286t-5.143-13.143q-15.429-21.143-56.571-61.714t-53.714-40.571q-6.857 0-14.857 5.143l-78.857 61.714q-25.143-13.143-52-21.714-9.143-77.714-16.571-106.286-4-16-20.571-16h-126.857q-8 0-14 4.857t-6.571 12.286l-16 105.143q-28 9.143-51.429 21.143l-80.571-61.143q-5.714-5.143-14.286-5.143-8 0-14.286 6.286-72 65.143-94.286 96-4 5.714-4 13.143 0 6.857 4.571 13.143 8.571 12 29.143 38t30.857 40.286q-15.429 28.571-23.429 56.571l-104.571 15.429q-7.429 1.143-12 7.143t-4.571 13.429v126.857q0 6.857 4.571 13.143t10.857 7.429l106.286 16q8 26.286 22.286 52.571-22.857 32.571-61.143 78.857-5.714 6.857-5.714 13.714 0 5.714 5.143 13.143 14.857 20.571 56.286 61.429t54 40.857q7.429 0 14.857-5.714l78.857-61.143q25.143 13.143 52 21.714 9.143 77.714 16.571 106.286 4 16 20.571 16h126.857q8 0 14-4.857t6.571-12.286l16-105.143q28-9.143 51.429-21.143l81.143 61.143q5.143 5.143 13.714 5.143 7.429 0 14.286-5.714 73.714-68 94.286-97.143 4-4.571 4-12.571 0-6.857-4.571-13.143-8.571-12-29.143-38t-30.857-40.286q14.857-28.571 23.429-56l104.571-16q7.429-1.143 12-7.143t4.571-13.429z" />
<glyph unicode="&#xf014;" d="M292.571 530.286v-329.143q0-8-5.143-13.143t-13.143-5.143h-36.571q-8 0-13.143 5.143t-5.143 13.143v329.143q0 8 5.143 13.143t13.143 5.143h36.571q8 0 13.143-5.143t5.143-13.143zM438.857 530.286v-329.143q0-8-5.143-13.143t-13.143-5.143h-36.571q-8 0-13.143 5.143t-5.143 13.143v329.143q0 8 5.143 13.143t13.143 5.143h36.571q8 0 13.143-5.143t5.143-13.143zM585.143 530.286v-329.143q0-8-5.143-13.143t-13.143-5.143h-36.571q-8 0-13.143 5.143t-5.143 13.143v329.143q0 8 5.143 13.143t13.143 5.143h36.571q8 0 13.143-5.143t5.143-13.143zM658.286 116.571v541.714h-512v-541.714q0-12.571 4-23.143t8.286-15.429 6-4.857h475.429q1.714 0 6 4.857t8.286 15.429 4 23.143zM274.286 731.428h256l-27.429 66.857q-4 5.143-9.714 6.286h-181.143q-5.714-1.143-9.714-6.286zM804.571 713.143v-36.571q0-8-5.143-13.143t-13.143-5.143h-54.857v-541.714q0-47.429-26.857-82t-64.571-34.571h-475.429q-37.714 0-64.571 33.429t-26.857 80.857v544h-54.857q-8 0-13.143 5.143t-5.143 13.143v36.571q0 8 5.143 13.143t13.143 5.143h176.571l40 95.429q8.571 21.143 30.857 36t45.143 14.857h182.857q22.857 0 45.143-14.857t30.857-36l40-95.429h176.571q8 0 13.143-5.143t5.143-13.143z" horiz-adv-x="805" />
<glyph unicode="&#xf015;" d="M804.571 384v-274.286q0-14.857-10.857-25.714t-25.714-10.857h-219.429v219.429h-146.286v-219.429h-219.429q-14.857 0-25.714 10.857t-10.857 25.714v274.286q0 0.571 0.286 1.714t0.286 1.714l328.571 270.857 328.571-270.857q0.571-1.143 0.571-3.429zM932 423.428l-35.429-42.286q-4.571-5.143-12-6.286h-1.714q-7.429 0-12 4l-395.429 329.714-395.429-329.714q-6.857-4.571-13.714-4-7.429 1.143-12 6.286l-35.429 42.286q-4.571 5.714-4 13.429t6.286 12.286l410.857 342.286q18.286 14.857 43.429 14.857t43.429-14.857l139.429-116.571v111.429q0 8 5.143 13.143t13.143 5.143h109.714q8 0 13.143-5.143t5.143-13.143v-233.143l125.143-104q5.714-4.571 6.286-12.286t-4-13.429z" horiz-adv-x="951" />
<glyph unicode="&#xf016;" d="M838.857 733.714q16-16 27.429-43.429t11.429-50.286v-658.286q0-22.857-16-38.857t-38.857-16h-768q-22.857 0-38.857 16t-16 38.857v914.286q0 22.857 16 38.857t38.857 16h512q22.857 0 50.286-11.429t43.429-27.429zM585.143 873.143v-214.857h214.857q-5.714 16.571-12.571 23.429l-178.857 178.857q-6.857 6.857-23.429 12.571zM804.571 0v585.143h-237.714q-22.857 0-38.857 16t-16 38.857v237.714h-438.857v-877.714h731.429z" />
<glyph unicode="&#xf017;" d="M512 640v-256q0-8-5.143-13.143t-13.143-5.143h-182.857q-8 0-13.143 5.143t-5.143 13.143v36.571q0 8 5.143 13.143t13.143 5.143h128v201.143q0 8 5.143 13.143t13.143 5.143h36.571q8 0 13.143-5.143t5.143-13.143zM749.714 438.857q0 84.571-41.714 156t-113.143 113.143-156 41.714-156-41.714-113.143-113.143-41.714-156 41.714-156 113.143-113.143 156-41.714 156 41.714 113.143 113.143 41.714 156zM877.714 438.857q0-119.429-58.857-220.286t-159.714-159.714-220.286-58.857-220.286 58.857-159.714 159.714-58.857 220.286 58.857 220.286 159.714 159.714 220.286 58.857 220.286-58.857 159.714-159.714 58.857-220.286z" />
<glyph unicode="&#xf018;" d="M634.857 381.714v2.286l-13.714 182.857q-0.571 7.429-6.286 12.857t-13.143 5.429h-106.286q-7.429 0-13.143-5.429t-6.286-12.857l-13.714-182.857v-2.286q-0.571-6.857 4.571-11.429t12-4.571h139.429q6.857 0 12 4.571t4.571 11.429zM1068.571 114.857q0-41.714-26.286-41.714h-402.286q7.429 0 12.571 5.429t4.571 12.857l-11.429 146.286q-0.571 7.429-6.286 12.857t-13.143 5.429h-155.429q-7.429 0-13.143-5.429t-6.286-12.857l-11.429-146.286q-0.571-7.429 4.571-12.857t12.571-5.429h-402.286q-26.286 0-26.286 41.714 0 30.857 14.857 66.286l238.286 596.571q4.571 10.857 14.857 18.857t21.714 8h193.714q-7.429 0-13.143-5.429t-6.286-12.857l-8.571-109.714q-0.571-8 4.571-13.143t12.571-5.143h94.857q7.429 0 12.571 5.143t4.571 13.143l-8.571 109.714q-0.571 7.429-6.286 12.857t-13.143 5.429h193.714q11.429 0 21.714-8t14.857-18.857l238.286-596.571q14.857-35.429 14.857-66.286z" horiz-adv-x="1097" />
<glyph unicode="&#xf019;" d="M731.429 182.857q0 14.857-10.857 25.714t-25.714 10.857-25.714-10.857-10.857-25.714 10.857-25.714 25.714-10.857 25.714 10.857 10.857 25.714zM877.714 182.857q0 14.857-10.857 25.714t-25.714 10.857-25.714-10.857-10.857-25.714 10.857-25.714 25.714-10.857 25.714 10.857 10.857 25.714zM950.857 310.857v-182.857q0-22.857-16-38.857t-38.857-16h-841.143q-22.857 0-38.857 16t-16 38.857v182.857q0 22.857 16 38.857t38.857 16h265.714l77.143-77.714q33.143-32 77.714-32t77.714 32l77.714 77.714h265.143q22.857 0 38.857-16t16-38.857zM765.143 636q9.714-23.429-8-40l-256-256q-10.286-10.857-25.714-10.857t-25.714 10.857l-256 256q-17.714 16.571-8 40 9.714 22.286 33.714 22.286h146.286v256q0 14.857 10.857 25.714t25.714 10.857h146.286q14.857 0 25.714-10.857t10.857-25.714v-256h146.286q24 0 33.714-22.286z" horiz-adv-x="951" />
<glyph unicode="&#xf01a;" d="M640 420.571q0-6.857-5.714-13.714l-182.286-182.286q-6.286-5.143-13.143-5.143t-13.143 5.143l-182.857 182.857q-8.571 9.143-4 20 4.571 11.429 17.143 11.429h109.714v201.143q0 8 5.143 13.143t13.143 5.143h109.714q8 0 13.143-5.143t5.143-13.143v-201.143h109.714q8 0 13.143-5.143t5.143-13.143zM438.857 749.714q-84.571 0-156-41.714t-113.143-113.143-41.714-156 41.714-156 113.143-113.143 156-41.714 156 41.714 113.143 113.143 41.714 156-41.714 156-113.143 113.143-156 41.714zM877.714 438.857q0-119.429-58.857-220.286t-159.714-159.714-220.286-58.857-220.286 58.857-159.714 159.714-58.857 220.286 58.857 220.286 159.714 159.714 220.286 58.857 220.286-58.857 159.714-159.714 58.857-220.286z" />
<glyph unicode="&#xf01b;" d="M638.857 450.286q-4.571-11.429-17.143-11.429h-109.714v-201.143q0-8-5.143-13.143t-13.143-5.143h-109.714q-8 0-13.143 5.143t-5.143 13.143v201.143h-109.714q-8 0-13.143 5.143t-5.143 13.143q0 6.857 5.714 13.714l182.286 182.286q6.286 5.143 13.143 5.143t13.143-5.143l182.857-182.857q8.571-9.143 4-20zM438.857 749.714q-84.571 0-156-41.714t-113.143-113.143-41.714-156 41.714-156 113.143-113.143 156-41.714 156 41.714 113.143 113.143 41.714 156-41.714 156-113.143 113.143-156 41.714zM877.714 438.857q0-119.429-58.857-220.286t-159.714-159.714-220.286-58.857-220.286 58.857-159.714 159.714-58.857 220.286 58.857 220.286 159.714 159.714 220.286 58.857 220.286-58.857 159.714-159.714 58.857-220.286z" />
<glyph unicode="&#xf01c;" d="M584.571 402.286h180.571q-0.571 1.714-1.429 4.571t-1.429 4.571l-121.143 283.429h-404.571l-121.143-283.429q-0.571-1.143-1.429-4.571t-1.429-4.571h180.571l54.286-109.714h182.857zM877.714 385.143v-275.429q0-14.857-10.857-25.714t-25.714-10.857h-804.571q-14.857 0-25.714 10.857t-10.857 25.714v275.429q0 35.429 14.286 70.286l136 315.429q5.714 14.286 20.857 24t30 9.714h475.429q14.857 0 30-9.714t20.857-24l136-315.429q14.286-34.857 14.286-70.286z" />
<glyph unicode="&#xf01d;" d="M676.571 438.857q0-21.143-18.286-31.429l-310.857-182.857q-8.571-5.143-18.286-5.143-9.143 0-18.286 4.571-18.286 10.857-18.286 32v365.714q0 21.143 18.286 32 18.857 10.286 36.571-0.571l310.857-182.857q18.286-10.286 18.286-31.429zM749.714 438.857q0 84.571-41.714 156t-113.143 113.143-156 41.714-156-41.714-113.143-113.143-41.714-156 41.714-156 113.143-113.143 156-41.714 156 41.714 113.143 113.143 41.714 156zM877.714 438.857q0-119.429-58.857-220.286t-159.714-159.714-220.286-58.857-220.286 58.857-159.714 159.714-58.857 220.286 58.857 220.286 159.714 159.714 220.286 58.857 220.286-58.857 159.714-159.714 58.857-220.286z" />
<glyph unicode="&#xf01e;" d="M877.714 804.571v-256q0-14.857-10.857-25.714t-25.714-10.857h-256q-24 0-33.714 22.857-9.714 22.286 8 39.429l78.857 78.857q-84.571 78.286-199.429 78.286-59.429 0-113.429-23.143t-93.429-62.571-62.571-93.429-23.143-113.429 23.143-113.429 62.571-93.429 93.429-62.571 113.429-23.143q68 0 128.571 29.714t102.286 84q4 5.714 13.143 6.857 8 0 14.286-5.143l78.286-78.857q5.143-4.571 5.429-11.714t-4.286-12.857q-62.286-75.429-150.857-116.857t-186.857-41.429q-89.143 0-170.286 34.857t-140 93.714-93.714 140-34.857 170.286 34.857 170.286 93.714 140 140 93.714 170.286 34.857q84 0 162.571-31.714t139.714-89.429l74.286 73.714q16.571 17.714 40 8 22.286-9.714 22.286-33.714z" />
<glyph unicode="&#xf021;" d="M863.429 347.428q0-2.857-0.571-4-36.571-153.143-153.143-248.286t-273.143-95.143q-83.429 0-161.429 31.429t-139.143 89.714l-73.714-73.714q-10.857-10.857-25.714-10.857t-25.714 10.857-10.857 25.714v256q0 14.857 10.857 25.714t25.714 10.857h256q14.857 0 25.714-10.857t10.857-25.714-10.857-25.714l-78.286-78.286q40.571-37.714 92-58.286t106.857-20.571q76.571 0 142.857 37.143t106.286 102.286q6.286 9.714 30.286 66.857 4.571 13.143 17.143 13.143h109.714q7.429 0 12.857-5.429t5.429-12.857zM877.714 804.571v-256q0-14.857-10.857-25.714t-25.714-10.857h-256q-14.857 0-25.714 10.857t-10.857 25.714 10.857 25.714l78.857 78.857q-84.571 78.286-199.429 78.286-76.571 0-142.857-37.143t-106.286-102.286q-6.286-9.714-30.286-66.857-4.571-13.143-17.143-13.143h-113.714q-7.429 0-12.857 5.429t-5.429 12.857v4q37.143 153.143 154.286 248.286t274.286 95.143q83.429 0 162.286-31.714t140-89.429l74.286 73.714q10.857 10.857 25.714 10.857t25.714-10.857 10.857-25.714z" />
<glyph unicode="&#xf022;" d="M219.429 274.286v-36.571q0-7.429-5.429-12.857t-12.857-5.429h-36.571q-7.429 0-12.857 5.429t-5.429 12.857v36.571q0 7.429 5.429 12.857t12.857 5.429h36.571q7.429 0 12.857-5.429t5.429-12.857zM219.429 420.571v-36.571q0-7.429-5.429-12.857t-12.857-5.429h-36.571q-7.429 0-12.857 5.429t-5.429 12.857v36.571q0 7.429 5.429 12.857t12.857 5.429h36.571q7.429 0 12.857-5.429t5.429-12.857zM219.429 566.857v-36.571q0-7.429-5.429-12.857t-12.857-5.429h-36.571q-7.429 0-12.857 5.429t-5.429 12.857v36.571q0 7.429 5.429 12.857t12.857 5.429h36.571q7.429 0 12.857-5.429t5.429-12.857zM877.714 274.286v-36.571q0-7.429-5.429-12.857t-12.857-5.429h-548.571q-7.429 0-12.857 5.429t-5.429 12.857v36.571q0 7.429 5.429 12.857t12.857 5.429h548.571q7.429 0 12.857-5.429t5.429-12.857zM877.714 420.571v-36.571q0-7.429-5.429-12.857t-12.857-5.429h-548.571q-7.429 0-12.857 5.429t-5.429 12.857v36.571q0 7.429 5.429 12.857t12.857 5.429h548.571q7.429 0 12.857-5.429t5.429-12.857zM877.714 566.857v-36.571q0-7.429-5.429-12.857t-12.857-5.429h-548.571q-7.429 0-12.857 5.429t-5.429 12.857v36.571q0 7.429 5.429 12.857t12.857 5.429h548.571q7.429 0 12.857-5.429t5.429-12.857zM950.857 164.571v475.429q0 7.429-5.429 12.857t-12.857 5.429h-841.143q-7.429 0-12.857-5.429t-5.429-12.857v-475.429q0-7.429 5.429-12.857t12.857-5.429h841.143q7.429 0 12.857 5.429t5.429 12.857zM1024 786.286v-621.714q0-37.714-26.857-64.571t-64.571-26.857h-841.143q-37.714 0-64.571 26.857t-26.857 64.571v621.714q0 37.714 26.857 64.571t64.571 26.857h841.143q37.714 0 64.571-26.857t26.857-64.571z" />
<glyph unicode="&#xf023;" d="M182.857 512h292.571v109.714q0 60.571-42.857 103.429t-103.429 42.857-103.429-42.857-42.857-103.429v-109.714zM658.286 457.143v-329.143q0-22.857-16-38.857t-38.857-16h-548.571q-22.857 0-38.857 16t-16 38.857v329.143q0 22.857 16 38.857t38.857 16h18.286v109.714q0 105.143 75.429 180.571t180.571 75.429 180.571-75.429 75.429-180.571v-109.714h18.286q22.857 0 38.857-16t16-38.857z" horiz-adv-x="658" />
<glyph unicode="&#xf024;" d="M182.857 804.571q0-41.143-36.571-62.857v-723.429q0-7.429-5.429-12.857t-12.857-5.429h-36.571q-7.429 0-12.857 5.429t-5.429 12.857v723.429q-36.571 21.714-36.571 62.857 0 30.286 21.429 51.714t51.714 21.429 51.714-21.429 21.429-51.714zM1024 768v-436q0-14.286-7.143-22t-22.571-15.714q-122.857-66.286-210.857-66.286-34.857 0-70.571 12.571t-62 27.429-66 27.429-81.429 12.571q-109.714 0-265.143-83.429-9.714-5.143-18.857-5.143-14.857 0-25.714 10.857t-10.857 25.714v424q0 18.286 17.714 31.429 12 8 45.143 24.571 134.857 68.571 240.571 68.571 61.143 0 114.286-16.571t125.143-50.286q21.714-10.857 50.286-10.857 30.857 0 67.143 12t62.857 26.857 50.286 26.857 31.143 12q14.857 0 25.714-10.857t10.857-25.714z" />
<glyph unicode="&#xf025;" d="M950.857 444.571q0-94.857-34.286-179.429l-11.429-28-105.714-18.857q-12.571-47.429-51.714-78t-89.429-30.571v-18.286q0-8-5.143-13.143t-13.143-5.143h-36.571q-8 0-13.143 5.143t-5.143 13.143v329.143q0 8 5.143 13.143t13.143 5.143h36.571q8 0 13.143-5.143t5.143-13.143v-18.286q40.571 0 74.286-20.286t53.143-54.571l38.857 6.857q16.571 54.286 16.571 110.286 0 84.571-50.286 159.429t-135.143 119.429-180.286 44.571-180.286-44.571-135.143-119.429-50.286-159.429q0-56 16.571-110.286l38.857-6.857q19.429 34.286 53.143 54.571t74.286 20.286v18.286q0 8 5.143 13.143t13.143 5.143h36.571q8 0 13.143-5.143t5.143-13.143v-329.143q0-8-5.143-13.143t-13.143-5.143h-36.571q-8 0-13.143 5.143t-5.143 13.143v18.286q-50.286 0-89.429 30.571t-51.714 78l-105.714 18.857-11.429 28q-34.286 84.571-34.286 179.429 0 86.286 38.286 166.286t102.286 138.571 152 93.429 182.857 34.857 182.857-34.857 152-93.429 102.286-138.571 38.286-166.286z" horiz-adv-x="951" />
<glyph unicode="&#xf026;" d="M438.857 749.714v-621.714q0-14.857-10.857-25.714t-25.714-10.857-25.714 10.857l-190.286 190.286h-149.714q-14.857 0-25.714 10.857t-10.857 25.714v219.429q0 14.857 10.857 25.714t25.714 10.857h149.714l190.286 190.286q10.857 10.857 25.714 10.857t25.714-10.857 10.857-25.714z" horiz-adv-x="439" />
<glyph unicode="&#xf027;" d="M438.857 749.714v-621.714q0-14.857-10.857-25.714t-25.714-10.857-25.714 10.857l-190.286 190.286h-149.714q-14.857 0-25.714 10.857t-10.857 25.714v219.429q0 14.857 10.857 25.714t25.714 10.857h149.714l190.286 190.286q10.857 10.857 25.714 10.857t25.714-10.857 10.857-25.714zM658.286 438.857q0-43.429-24.286-80.857t-64.286-53.429q-5.714-2.857-14.286-2.857-14.857 0-25.714 10.571t-10.857 26q0 12 6.857 20.286t16.571 14.286 19.429 13.143 16.571 20.286 6.857 32.571-6.857 32.571-16.571 20.286-19.429 13.143-16.571 14.286-6.857 20.286q0 15.429 10.857 26t25.714 10.571q8.571 0 14.286-2.857 40-15.429 64.286-53.143t24.286-81.143z" horiz-adv-x="658" />
<glyph unicode="&#xf028;" d="M438.857 749.714v-621.714q0-14.857-10.857-25.714t-25.714-10.857-25.714 10.857l-190.286 190.286h-149.714q-14.857 0-25.714 10.857t-10.857 25.714v219.429q0 14.857 10.857 25.714t25.714 10.857h149.714l190.286 190.286q10.857 10.857 25.714 10.857t25.714-10.857 10.857-25.714zM658.286 438.857q0-43.429-24.286-80.857t-64.286-53.429q-5.714-2.857-14.286-2.857-14.857 0-25.714 10.571t-10.857 26q0 12 6.857 20.286t16.571 14.286 19.429 13.143 16.571 20.286 6.857 32.571-6.857 32.571-16.571 20.286-19.429 13.143-16.571 14.286-6.857 20.286q0 15.429 10.857 26t25.714 10.571q8.571 0 14.286-2.857 40-15.429 64.286-53.143t24.286-81.143zM804.571 438.857q0-87.429-48.571-161.429t-128.571-107.714q-7.429-2.857-14.286-2.857-15.429 0-26.286 10.857t-10.857 25.714q0 22.286 22.286 33.714 32 16.571 43.429 25.143 42.286 30.857 66 77.429t23.714 99.143-23.714 99.143-66 77.429q-11.429 8.571-43.429 25.143-22.286 11.429-22.286 33.714 0 14.857 10.857 25.714t25.714 10.857q7.429 0 14.857-2.857 80-33.714 128.571-107.714t48.571-161.429zM950.857 438.857q0-131.429-72.571-241.429t-193.143-162q-7.429-2.857-14.857-2.857-14.857 0-25.714 10.857t-10.857 25.714q0 20.571 22.286 33.714 4 2.286 12.857 6t12.857 6q26.286 14.286 46.857 29.143 70.286 52 109.714 129.714t39.429 165.143-39.429 165.143-109.714 129.714q-20.571 14.857-46.857 29.143-4 2.286-12.857 6t-12.857 6q-22.286 13.143-22.286 33.714 0 14.857 10.857 25.714t25.714 10.857q7.429 0 14.857-2.857 120.571-52 193.143-162t72.571-241.429z" horiz-adv-x="951" />
</font>
</defs>
</svg>
